<?xml version="1.0" encoding="UTF-8"?>
<svg version="1.1" xmlns="http://www.w3.org/2000/svg" width="500" height="500">
<path d="M0 0 C4.20278759 2.4376168 7.5997432 5.03487698 9.8125 9.4375 C11.4455181 16.71268736 11.62072088 22.94941998 7.8125 29.4375 C7.1525 30.4275 6.4925 31.4175 5.8125 32.4375 C5.1525 32.4375 4.4925 32.4375 3.8125 32.4375 C3.1525 33.7575 2.4925 35.0775 1.8125 36.4375 C1.1525 36.4375 0.4925 36.4375 -0.1875 36.4375 C-0.1875 37.0975 -0.1875 37.7575 -0.1875 38.4375 C-0.8475 38.4375 -1.5075 38.4375 -2.1875 38.4375 C-2.1875 39.0975 -2.1875 39.7575 -2.1875 40.4375 C-3.83101457 41.79926922 -5.50272656 43.12712066 -7.1875 44.4375 C-8.425 45.7059375 -8.425 45.7059375 -9.6875 47 C-13.53329141 50.74964663 -16.85626018 52.67589431 -22.1875 53.4375 C-21.8575 54.4275 -21.5275 55.4175 -21.1875 56.4375 C-21.89453125 58.375 -21.89453125 58.375 -23 60.4375 C-23.35707031 61.118125 -23.71414063 61.79875 -24.08203125 62.5 C-25.04557569 64.18875633 -26.10899451 65.81974176 -27.1875 67.4375 C-27.8475 67.4375 -28.5075 67.4375 -29.1875 67.4375 C-29.1875 68.0975 -29.1875 68.7575 -29.1875 69.4375 C-29.8475 69.4375 -30.5075 69.4375 -31.1875 69.4375 C-31.1875 70.0975 -31.1875 70.7575 -31.1875 71.4375 C-31.8475 71.4375 -32.5075 71.4375 -33.1875 71.4375 C-33.1875 72.0975 -33.1875 72.7575 -33.1875 73.4375 C-33.8475 73.4375 -34.5075 73.4375 -35.1875 73.4375 C-35.1875 74.0975 -35.1875 74.7575 -35.1875 75.4375 C-35.8475 75.4375 -36.5075 75.4375 -37.1875 75.4375 C-37.1875 76.0975 -37.1875 76.7575 -37.1875 77.4375 C-37.8475 77.4375 -38.5075 77.4375 -39.1875 77.4375 C-39.8475 78.7575 -40.5075 80.0775 -41.1875 81.4375 C-41.8475 81.4375 -42.5075 81.4375 -43.1875 81.4375 C-43.1875 82.0975 -43.1875 82.7575 -43.1875 83.4375 C-43.8475 83.4375 -44.5075 83.4375 -45.1875 83.4375 C-45.1875 84.0975 -45.1875 84.7575 -45.1875 85.4375 C-51.44110407 88.61393381 -56.50774808 90.95358492 -63.55078125 88.671875 C-69.74956522 86.18049771 -69.74956522 86.18049771 -71.44921875 83.296875 C-71.69285156 82.68328125 -71.93648437 82.0696875 -72.1875 81.4375 C-72.8475 81.4375 -73.5075 81.4375 -74.1875 81.4375 C-77.48696979 75.11351624 -78.56034928 68.85657207 -76.40234375 61.91015625 C-74.2903753 57.6115195 -70.95424939 54.43367499 -67.67089844 50.99267578 C-66.61126848 49.88177341 -65.55791002 48.76487522 -64.50878906 47.64404297 C-62.70847116 45.72682771 -60.88839694 43.83034649 -59.0625 41.9375 C-58.20253418 41.02013062 -58.20253418 41.02013062 -57.32519531 40.08422852 C-54.47214967 37.17694401 -52.37388156 35.23214861 -48.3515625 34.2890625 C-45.11137737 33.81539853 -45.11137737 33.81539853 -44.09375 31.5546875 C-43.9596875 30.81476563 -43.825625 30.07484375 -43.6875 29.3125 C-42.13343583 23.60221769 -39.30012706 20.59655994 -35.1875 16.4375 C-34.00471772 15.19447707 -32.82247649 13.9509392 -31.640625 12.70703125 C-30.32455094 11.3447734 -29.00682067 9.98411381 -27.6875 8.625 C-27.05875977 7.96612793 -26.43001953 7.30725586 -25.78222656 6.62841797 C-18.53187236 -0.70685709 -10.01115078 -4.4324179 0 0 Z M-17.828125 12.1015625 C-18.35921875 12.74867188 -18.8903125 13.39578125 -19.4375 14.0625 C-23.12634504 18.43150085 -27.09883634 22.44441549 -31.1875 26.4375 C-30.5275 27.4275 -29.8675 28.4175 -29.1875 29.4375 C-28.445 29.52 -27.7025 29.6025 -26.9375 29.6875 C-22.70324289 30.84229739 -20.77233354 34.03546823 -18.1875 37.4375 C-10.96435715 36.80016387 -6.06272949 30.73294809 -1.61328125 25.484375 C0.51593503 22.42763711 0.9494351 20.13474766 0.8125 16.4375 C-0.70266628 12.42230937 -1.5930253 10.83381647 -5.1875 8.4375 C-10.47534037 8.05292979 -14.02730609 8.24644618 -17.828125 12.1015625 Z M-34.1875 31.4375 C-34.5175 32.0975 -34.8475 32.7575 -35.1875 33.4375 C-37.25 34.5625 -37.25 34.5625 -39.1875 35.4375 C-38.8575 36.0975 -38.5275 36.7575 -38.1875 37.4375 C-36.5375 37.4375 -34.8875 37.4375 -33.1875 37.4375 C-32.8575 36.4475 -32.5275 35.4575 -32.1875 34.4375 C-32.8475 33.4475 -33.5075 32.4575 -34.1875 31.4375 Z M-43.1875 40.4375 C-43.1875 41.0975 -43.1875 41.7575 -43.1875 42.4375 C-45.1675 43.4275 -45.1675 43.4275 -47.1875 44.4375 C-46.8575 45.0975 -46.5275 45.7575 -46.1875 46.4375 C-44.5375 45.4475 -42.8875 44.4575 -41.1875 43.4375 C-41.5175 42.4475 -41.8475 41.4575 -42.1875 40.4375 C-42.5175 40.4375 -42.8475 40.4375 -43.1875 40.4375 Z M-25.1875 44.4375 C-25.5175 45.7575 -25.8475 47.0775 -26.1875 48.4375 C-25.5275 48.1075 -24.8675 47.7775 -24.1875 47.4375 C-24.5175 46.4475 -24.8475 45.4575 -25.1875 44.4375 Z M-53.1875 49.4375 C-53.1875 50.0975 -53.1875 50.7575 -53.1875 51.4375 C-53.8475 51.4375 -54.5075 51.4375 -55.1875 51.4375 C-55.1875 52.0975 -55.1875 52.7575 -55.1875 53.4375 C-55.8475 53.4375 -56.5075 53.4375 -57.1875 53.4375 C-58.92638091 55.15635317 -58.92638091 55.15635317 -60.6875 57.3125 C-62.47683258 59.42785504 -64.22769124 61.47769124 -66.1875 63.4375 C-67.22997113 68.0417475 -67.70240955 71.32219346 -65.1875 75.4375 C-62.31335188 77.81893701 -60.39573312 78.40775241 -56.6875 78.9375 C-52.22449279 78.29992754 -51.08956785 76.79778909 -48.1875 73.4375 C-46.7953125 72.3546875 -46.7953125 72.3546875 -45.375 71.25 C-44.2921875 70.3528125 -44.2921875 70.3528125 -43.1875 69.4375 C-43.1875 68.7775 -43.1875 68.1175 -43.1875 67.4375 C-42.5275 67.4375 -41.8675 67.4375 -41.1875 67.4375 C-41.1875 66.7775 -41.1875 66.1175 -41.1875 65.4375 C-40.5275 65.4375 -39.8675 65.4375 -39.1875 65.4375 C-38.8575 64.4475 -38.5275 63.4575 -38.1875 62.4375 C-39.47416131 60.36289358 -39.47416131 60.36289358 -41.375 58.375 C-41.98730469 57.68277344 -42.59960938 56.99054688 -43.23046875 56.27734375 C-45.07875716 54.35713573 -45.07875716 54.35713573 -47.36328125 53.37890625 C-49.1875 52.4375 -49.1875 52.4375 -50.1875 49.4375 C-51.1775 49.4375 -52.1675 49.4375 -53.1875 49.4375 Z M-33.1875 53.4375 C-33.5175 54.0975 -33.8475 54.7575 -34.1875 55.4375 C-33.1975 56.9225 -33.1975 56.9225 -32.1875 58.4375 C-32.1875 56.7875 -32.1875 55.1375 -32.1875 53.4375 C-32.5175 53.4375 -32.8475 53.4375 -33.1875 53.4375 Z " fill="#D7B260" transform="translate(283.1875,174.5625)"/>
<path d="M0 0 C0.99 0.33 1.98 0.66 3 1 C4.0625 3.22265625 4.0625 3.22265625 5 6.0625 C5.33515625 7.04992187 5.6703125 8.03734375 6.015625 9.0546875 C6.34046875 10.02664063 6.6653125 10.99859375 7 12 C7.57545046 13.56542032 8.15765194 15.12839519 8.75 16.6875 C9.1625 17.780625 9.575 18.87375 10 20 C11.32 20 12.64 20 14 20 C13.89171875 19.03900391 13.89171875 19.03900391 13.78125 18.05859375 C13.23892456 13.00442191 12.88951733 8.08220279 13 3 C12.34 3 11.68 3 11 3 C11 2.34 11 1.68 11 1 C13.64 1 16.28 1 19 1 C19 1.66 19 2.32 19 3 C19.598125 3.226875 20.19625 3.45375 20.8125 3.6875 C23.56085774 5.33651464 24.39211876 7.27359268 26 10 C26.99 10.33 27.98 10.66 29 11 C28.74438677 8.6568787 28.40729228 6.32156597 28 4 C27.34 3.67 26.68 3.34 26 3 C26 2.34 26 1.68 26 1 C28.64 1 31.28 1 34 1 C34 1.66 34 2.32 34 3 C33.34 3.33 32.68 3.66 32 4 C31.67 10.27 31.34 16.54 31 23 C29.68 22.67 28.36 22.34 27 22 C27 21.34 27 20.68 27 20 C26.34 20 25.68 20 25 20 C22 16.53846154 22 16.53846154 22 14 C20.68 13.67 19.36 13.34 18 13 C17.88679144 18.08303686 17.88679144 18.08303686 19 23 C10.585 23.495 10.585 23.495 2 24 C2 21.36 2 18.72 2 16 C-0.97 16.495 -0.97 16.495 -4 17 C-3.67 18.98 -3.34 20.96 -3 23 C-4.93742341 23.02703381 -6.87495479 23.04641125 -8.8125 23.0625 C-9.89144531 23.07410156 -10.97039062 23.08570313 -12.08203125 23.09765625 C-15 23 -15 23 -18 22 C-19 20 -20 18 -21 16 C-21.99 15.67 -22.98 15.34 -24 15 C-23.65772428 17.97065509 -23.65772428 17.97065509 -23 21 C-22.34 21.33 -21.68 21.66 -21 22 C-22 23 -22 23 -24.06640625 23.09765625 C-24.89011719 23.08605469 -25.71382812 23.07445312 -26.5625 23.0625 C-27.38878906 23.05347656 -28.21507812 23.04445313 -29.06640625 23.03515625 C-30.02353516 23.01775391 -30.02353516 23.01775391 -31 23 C-31 20.85543673 -30.98680058 18.71085711 -30.96484375 16.56640625 C-30.95556625 15.23177196 -30.94645729 13.89713648 -30.9375 12.5625 C-30.92589844 11.24378906 -30.91429687 9.92507813 -30.90234375 8.56640625 C-30.97863729 5.78016624 -31.14876078 3.62074437 -32 1 C-29.39472895 0.89207163 -26.79391689 0.81275122 -24.1875 0.75 C-23.44951172 0.71648437 -22.71152344 0.68296875 -21.95117188 0.6484375 C-16.50447316 0.54985472 -16.50447316 0.54985472 -13.96875 2.8125 C-12.63441466 5.82551529 -13.21625011 7.86500046 -14 11 C-14.66 11 -15.32 11 -16 11 C-15.43457996 12.32031595 -14.84693528 13.6311301 -14.25 14.9375 C-13.76273437 16.03384766 -13.76273437 16.03384766 -13.265625 17.15234375 C-12.13830628 19.18806644 -12.13830628 19.18806644 -9.859375 19.75390625 C-9.24578125 19.83511719 -8.6321875 19.91632813 -8 20 C-7.7525 18.72125 -7.505 17.4425 -7.25 16.125 C-6.08597006 10.88686526 -4.43483377 5.79357898 -2 1 C-1.34 0.67 -0.68 0.34 0 0 Z M-24 3 C-24 5.64 -24 8.28 -24 11 C-22.68 10.67 -21.36 10.34 -20 10 C-19.67 8.68 -19.34 7.36 -19 6 C-19.99 5.67 -20.98 5.34 -22 5 C-22 4.34 -22 3.68 -22 3 C-22.66 3 -23.32 3 -24 3 Z " fill="#214932" transform="translate(274,284)"/>
<path d="M0 0 C0 1.32 0 2.64 0 4 C3.32534757 5.10844919 5.62182575 4.84454356 9 4 C9.99 5.485 9.99 5.485 11 7 C11.66 5.02 12.32 3.04 13 1 C13.99 1.495 13.99 1.495 15 2 C15 5.63 15 9.26 15 13 C12.75390625 12.96744792 10.5078125 12.93489583 8.26171875 12.90234375 C5.83138666 12.90342145 5.83138666 12.90342145 3 14 C2.38125 13.67 1.7625 13.34 1.125 13 C-2.1780379 11.44562922 -4.70060744 12.60624468 -8.0625 13.625 C-10.33615837 14.06506291 -11.81582708 13.70205558 -14 13 C-14 12.34 -14 11.68 -14 11 C-14.66 11 -15.32 11 -16 11 C-16 11.66 -16 12.32 -16 13 C-16.99 13 -17.98 13 -19 13 C-19 12.34 -19 11.68 -19 11 C-19.66 11 -20.32 11 -21 11 C-21 11.66 -21 12.32 -21 13 C-22.92057292 12.96744792 -24.84114583 12.93489583 -26.76171875 12.90234375 C-29.0009183 12.93131276 -29.0009183 12.93131276 -31.1328125 13.49609375 C-35.47567245 14.25934843 -39.78736037 14.14384428 -44.1875 14.125 C-45.10208984 14.12886719 -46.01667969 14.13273437 -46.95898438 14.13671875 C-47.83232422 14.13542969 -48.70566406 14.13414062 -49.60546875 14.1328125 C-50.40106201 14.13168457 -51.19665527 14.13055664 -52.01635742 14.12939453 C-54 14 -54 14 -56 13 C-59.00474497 12.86440682 -61.99068847 12.95700984 -65 13 C-65 9.37 -65 5.74 -65 2 C-62.9271875 2.0309375 -62.9271875 2.0309375 -60.8125 2.0625 C-57.40701466 2.06787143 -54.31585863 1.85570545 -51 1 C-50.67 1.99 -50.34 2.98 -50 4 C-49.01 4 -48.02 4 -47 4 C-47 3.34 -47 2.68 -47 2 C-46.34 2 -45.68 2 -45 2 C-45 2.66 -45 3.32 -45 4 C-42.03824877 3.38722388 -40.61941217 2.74627478 -38 1 C-37.67 1.33 -37.34 1.66 -37 2 C-36.34 1.67 -35.68 1.34 -35 1 C-32.15495432 0.87567382 -29.34512848 0.8148359 -26.5 0.8125 C-25.71496094 0.80025391 -24.92992187 0.78800781 -24.12109375 0.77539062 C-22.07936274 0.77013746 -20.03807749 0.8777982 -18 1 C-17.34 1.66 -16.68 2.32 -16 3 C-15.34 2.34 -14.68 1.68 -14 1 C-11.50390625 0.5859375 -11.50390625 0.5859375 -8.5625 0.375 C-7.59441406 0.30023438 -6.62632812 0.22546875 -5.62890625 0.1484375 C-3.75493674 0.04262644 -1.87695437 0 0 0 Z M-26 3 C-26 3.33 -26 3.66 -26 4 C-24.35 4 -22.7 4 -21 4 C-21 3.67 -21 3.34 -21 3 C-22.65 3 -24.3 3 -26 3 Z M-16 7 C-15 9 -15 9 -15 9 Z " fill="#355F40" transform="translate(196,315)"/>
<path d="M0 0 C5.10815538 0.00373942 10.21629121 0.00243582 15.32444584 -0.00180268 C55.65932111 -0.03448156 95.97005246 0.32091415 136.29734623 1.12856841 C136.29734623 2.11856841 136.29734623 3.10856841 136.29734623 4.12856841 C57.75734623 4.12856841 -20.78265377 4.12856841 -101.70265377 4.12856841 C-101.70265377 3.13856841 -101.70265377 2.14856841 -101.70265377 1.12856841 C-67.8042222 0.04245755 -33.91166348 -0.02770159 0 0 Z " fill="#B99757" transform="translate(232.7026537656784,272.8714315891266)"/>
<path d="M0 0 C2 2 2 2 2.37109375 4.3828125 C1.88484826 7.81212278 0.67178122 8.66467742 -1.9375 10.875 C-4.88248018 13.64276014 -5.91404902 14.71827178 -7.125 18.6875 C-6.99765281 22.06220063 -6.73532053 24.10779911 -5 27 C-1.64069599 29.61279201 1.8923327 29.50445037 6 29 C8.8971941 26.68726558 8.8971941 26.68726558 11 24 C11.33 23.67 11.66 23.34 12 23 C13.670625 23.061875 13.670625 23.061875 15.375 23.125 C18.93012574 23.35600072 18.93012574 23.35600072 20.9375 21.5 C21.288125 21.005 21.63875 20.51 22 20 C23.125 26.75 23.125 26.75 22 29 C21.34 29 20.68 29 20 29 C19.34 30.32 18.68 31.64 18 33 C17.34 33 16.68 33 16 33 C16 33.66 16 34.32 16 35 C15.34 35 14.68 35 14 35 C14 35.66 14 36.32 14 37 C7.74639593 40.17643381 2.67975192 42.51608492 -4.36328125 40.234375 C-10.56206522 37.74299771 -10.56206522 37.74299771 -12.26171875 34.859375 C-12.62716797 33.93898438 -12.62716797 33.93898438 -13 33 C-13.66 33 -14.32 33 -15 33 C-18.29373019 26.68701713 -19.34995882 20.46470756 -17.25 13.51953125 C-15.75627111 10.50873395 -13.93500349 8.30930639 -11.6875 5.8125 C-10.92824219 4.95269531 -10.16898438 4.09289062 -9.38671875 3.20703125 C-6.54914156 0.58308508 -3.78444673 -1.89222337 0 0 Z " fill="#BA8C3D" transform="translate(224,223)"/>
<path d="M0 0 C5.21443333 -0.02470935 10.42883261 -0.04286444 15.64331055 -0.05493164 C17.41740513 -0.059962 19.19149556 -0.06678699 20.96557617 -0.07543945 C23.51482161 -0.08756174 26.06401226 -0.09324126 28.61328125 -0.09765625 C29.80405022 -0.10539818 29.80405022 -0.10539818 31.01887512 -0.11329651 C34.27656286 -0.11362877 36.88681521 -0.03772826 40 1 C41.4926488 1.01588684 42.98639014 0.96630858 44.4765625 0.87890625 C45.4344165 0.83024414 46.39227051 0.78158203 47.37915039 0.73144531 C48.45028076 0.67569336 49.52141113 0.61994141 50.625 0.5625 C63.64362614 -0.00566653 76.66073268 -0.1783333 89.69085693 -0.23318481 C91.94190786 -0.24441134 94.19293809 -0.26108993 96.44390869 -0.28317261 C99.64112451 -0.31304133 102.83781692 -0.32321416 106.03515625 -0.328125 C107.01109238 -0.34043655 107.9870285 -0.35274811 108.99253845 -0.36543274 C110.33439964 -0.36098396 110.33439964 -0.36098396 111.70336914 -0.35644531 C112.48797012 -0.36009094 113.27257111 -0.36373657 114.08094788 -0.36749268 C114.71423508 -0.24622009 115.34752228 -0.12494751 116 0 C116.99 1.485 116.99 1.485 118 3 C117 4 117 4 114.76773071 4.11352539 C113.77913055 4.10828857 112.7905304 4.10305176 111.77197266 4.09765625 C110.65214996 4.09435303 109.53232727 4.0910498 108.37857056 4.08764648 C107.1527829 4.07934814 105.92699524 4.0710498 104.6640625 4.0625 C103.4009726 4.05871338 102.13788269 4.05492676 100.83651733 4.05102539 C96.08980574 4.0367196 91.34316571 4.01390366 86.59649658 3.98962402 C70.69664931 3.90949972 54.86653011 3.87296567 39 5 C38.05943332 7.82170003 37.96406505 9.19249344 38.125 12.0625 C38.08375 13.361875 38.0425 14.66125 38 16 C37.01 16.66 36.02 17.32 35 18 C34.01 17.67 33.02 17.34 32 17 C31.875 14.625 31.875 14.625 32 12 C32.66 11.34 33.32 10.68 34 10 C33.34 9.67 32.68 9.34 32 9 C31.67 11.64 31.34 14.28 31 17 C29.22925083 17.02705729 27.45838289 17.04642195 25.6875 17.0625 C24.70136719 17.07410156 23.71523437 17.08570313 22.69921875 17.09765625 C20 17 20 17 17 16 C15.845 16.350625 14.69 16.70125 13.5 17.0625 C11.7675 17.5265625 11.7675 17.5265625 10 18 C9.01 17.34 8.02 16.68 7 16 C7 15.01 7 14.02 7 13 C7.99 13 8.98 13 10 13 C9.95875 12.05125 9.9175 11.1025 9.875 10.125 C10 7 10 7 12 5 C14 8 14 8 14 11 C14.433125 10.505 14.86625 10.01 15.3125 9.5 C17 8 17 8 20 8 C20 8.66 20 9.32 20 10 C20.50789063 9.71125 21.01578125 9.4225 21.5390625 9.125 C25.87808125 6.78485506 28.93935183 5.49393518 34 6 C34 5.67 34 5.34 34 5 C22.31433979 4.1716494 10.71389465 3.87669585 -1 4 C-0.67 2.68 -0.34 1.36 0 0 Z " fill="#B09A69" transform="translate(208,311)"/>
<path d="M0 0 C1.65 0.33 3.3 0.66 5 1 C5.3403125 2.6396875 5.3403125 2.6396875 5.6875 4.3125 C7.05062066 9.8545307 9.53267113 14.87699655 12 20 C12.66 20 13.32 20 14 20 C14.33 14.39 14.66 8.78 15 3 C14.34 3 13.68 3 13 3 C13 2.34 13 1.68 13 1 C16.3 1 19.6 1 23 1 C23 1.66 23 2.32 23 3 C22.34 3 21.68 3 21 3 C21 8.61 21 14.22 21 20 C22.65 20 24.3 20 26 20 C26.268125 19.360625 26.53625 18.72125 26.8125 18.0625 C28 16 28 16 31 15 C31 16.65 31 18.3 31 20 C31.66 20 32.32 20 33 20 C33.18175781 19.38253906 33.36351562 18.76507813 33.55078125 18.12890625 C34.07658337 16.35735758 34.60958912 14.58793661 35.1484375 12.8203125 C35.69540645 11.00879148 36.22317273 9.19129883 36.7265625 7.3671875 C36.96117187 6.56539063 37.19578125 5.76359375 37.4375 4.9375 C37.64246094 4.20402344 37.84742188 3.47054688 38.05859375 2.71484375 C39 1 39 1 41.09765625 0.25390625 C41.72542969 0.17011719 42.35320312 0.08632813 43 0 C45.16010111 3.39356793 46.704893 6.63312318 48 10.4375 C49.4200188 14.47909197 50.9647268 18.23474457 53 22 C52 23 52 23 49.93359375 23.09765625 C49.10988281 23.08605469 48.28617187 23.07445312 47.4375 23.0625 C46.61121094 23.05347656 45.78492188 23.04445313 44.93359375 23.03515625 C43.97646484 23.01775391 43.97646484 23.01775391 43 23 C43 21.35 43 19.7 43 18 C41.35 17.67 39.7 17.34 38 17 C38 17.99 38 18.98 38 20 C38 20.99 38 21.98 38 23 C26.45 23 14.9 23 3 23 C3 20.69 3 18.38 3 16 C1.02 16 -0.96 16 -3 16 C-2.67 18.31 -2.34 20.62 -2 23 C-4.31 23 -6.62 23 -9 23 C-9 22.01 -9 21.02 -9 20 C-8.34 19.67 -7.68 19.34 -7 19 C-6.09288092 16.77872122 -5.27286851 14.52147941 -4.5 12.25 C-3.08471153 8.1249519 -1.66229882 4.03261381 0 0 Z M1 11 C2 13 2 13 2 13 Z " fill="#30573D" transform="translate(317,284)"/>
<path d="M0 0 C4.20278759 2.4376168 7.5997432 5.03487698 9.8125 9.4375 C11.4455181 16.71268736 11.62072088 22.94941998 7.8125 29.4375 C7.1525 30.4275 6.4925 31.4175 5.8125 32.4375 C5.1525 32.4375 4.4925 32.4375 3.8125 32.4375 C3.4825 33.4275 3.1525 34.4175 2.8125 35.4375 C1.4925 35.4375 0.1725 35.4375 -1.1875 35.4375 C-1.1875 34.7775 -1.1875 34.1175 -1.1875 33.4375 C-1.8475 33.4375 -2.5075 33.4375 -3.1875 33.4375 C-3.1875 34.0975 -3.1875 34.7575 -3.1875 35.4375 C-4.5075 35.1075 -5.8275 34.7775 -7.1875 34.4375 C-5.5872352 30.12909477 -3.48313534 26.38095301 -0.9375 22.5625 C0.50149445 18.48534907 -0.86219509 14.41341474 -2.1875 10.4375 C-6.5339564 8.9886812 -11.89100049 8.52794466 -16.1875 10.4375 C-16.89144612 11.75153276 -17.55095658 13.0895257 -18.1875 14.4375 C-19.81496694 16.14246537 -21.47641311 17.81647032 -23.1875 19.4375 C-24.1775 19.1075 -25.1675 18.7775 -26.1875 18.4375 C-26.1875 17.7775 -26.1875 17.1175 -26.1875 16.4375 C-26.8475 16.4375 -27.5075 16.4375 -28.1875 16.4375 C-28.1875 15.7775 -28.1875 15.1175 -28.1875 14.4375 C-28.8475 14.1075 -29.5075 13.7775 -30.1875 13.4375 C-27.08135046 7.4079156 -22.66760799 2.8612657 -16.8125 -0.5 C-10.86893052 -2.24208071 -5.75073444 -2.5461267 0 0 Z " fill="#BA8F44" transform="translate(283.1875,174.5625)"/>
<path d="M0 0 C2 3 2 3 2 5 C2.66 5 3.32 5 4 5 C4.66 6.32 5.32 7.64 6 9 C4.02 11.31 2.04 13.62 0 16 C0.825 16.144375 1.65 16.28875 2.5 16.4375 C6.96572293 18.43112631 9.125409 21.25321622 12.16796875 25.00390625 C13.92798868 27.24549672 13.92798868 27.24549672 17 28 C16.67 29.65 16.34 31.3 16 33 C9.63920354 34.53130285 5.83398173 33.74722164 0.078125 30.61328125 C-2.16906595 28.86875144 -2.85504363 27.887847 -3.625 25.1875 C-3.810625 23.6096875 -3.810625 23.6096875 -4 22 C-4.33 22.33 -4.66 22.66 -5 23 C-6.66617115 23.04063832 -8.33388095 23.042721 -10 23 C-10.33 24.65 -10.66 26.3 -11 28 C-11.66 28 -12.32 28 -13 28 C-13.25334099 26.48300635 -13.47635264 24.96093959 -13.6875 23.4375 C-13.81511719 22.59058594 -13.94273437 21.74367187 -14.07421875 20.87109375 C-13.917143 14.79474238 -11.02352305 10.56077244 -6.82617188 6.47460938 C-6.32666016 6.00861328 -5.82714844 5.54261719 -5.3125 5.0625 C-4.80138672 4.56943359 -4.29027344 4.07636719 -3.76367188 3.56835938 C-2.51817455 2.3694227 -1.26034834 1.18331517 0 0 Z " fill="#D9BC71" transform="translate(253,186)"/>
<path d="M0 0 C1.25159912 0.04713135 2.50319824 0.0942627 3.79272461 0.14282227 C4.45719101 0.16643326 5.12165741 0.19004425 5.80625916 0.21437073 C7.93607115 0.29116537 10.06553382 0.37512065 12.19506836 0.45922852 C13.63580627 0.51243345 15.07656141 0.56517394 16.51733398 0.61743164 C20.05596149 0.74680138 23.59430977 0.88259592 27.13256836 1.02172852 C26.97014648 2.25149414 26.80772461 3.48125977 26.64038086 4.74829102 C25.54362308 12.06122919 25.54362308 12.06122919 27.13256836 19.02172852 C28.79868741 19.06444952 30.46639721 19.06236684 32.13256836 19.02172852 C34.1287339 17.02556298 33.54240263 13.20470888 33.69506836 10.45922852 C33.75984375 9.39285156 33.75984375 9.39285156 33.82592773 8.30493164 C33.93228612 6.5441094 34.03295682 4.78294532 34.13256836 3.02172852 C33.47256836 3.02172852 32.81256836 3.02172852 32.13256836 3.02172852 C32.13256836 2.36172852 32.13256836 1.70172852 32.13256836 1.02172852 C34.77256836 1.02172852 37.41256836 1.02172852 40.13256836 1.02172852 C40.13256836 1.68172852 40.13256836 2.34172852 40.13256836 3.02172852 C39.47256836 3.35172852 38.81256836 3.68172852 38.13256836 4.02172852 C37.87501996 6.2840571 37.72628666 8.55921672 37.63256836 10.83422852 C37.29383471 19.00617783 37.29383471 19.00617783 35.13256836 22.02172852 C30.95583289 23.41397367 27.07054332 23.59788324 22.82006836 22.33422852 C20.47332384 20.50898278 20.05857837 18.84237824 19.13256836 16.02172852 C18.85135594 13.75876445 18.64551947 11.48542189 18.50756836 9.20922852 C18.43280273 8.0477832 18.35803711 6.88633789 18.28100586 5.68969727 C18.23202148 4.80926758 18.18303711 3.92883789 18.13256836 3.02172852 C17.47256836 3.02172852 16.81256836 3.02172852 16.13256836 3.02172852 C16.46256836 4.34172852 16.79256836 5.66172852 17.13256836 7.02172852 C14.13256836 7.02172852 14.13256836 7.02172852 11.13256836 5.02172852 C11.13256836 4.36172852 11.13256836 3.70172852 11.13256836 3.02172852 C10.47256836 3.02172852 9.81256836 3.02172852 9.13256836 3.02172852 C9.24618438 5.81429071 9.37292726 8.6051697 9.50756836 11.39672852 C9.53850586 12.19079102 9.56944336 12.98485352 9.60131836 13.80297852 C9.65073257 18.38840227 9.65073257 18.38840227 12.13256836 22.02172852 C11.13256836 23.02172852 11.13256836 23.02172852 8.84741211 23.11938477 C7.47262695 23.10198242 7.47262695 23.10198242 6.07006836 23.08422852 C5.1509668 23.07520508 4.23186523 23.06618164 3.28491211 23.05688477 C2.57463867 23.0452832 1.86436523 23.03368164 1.13256836 23.02172852 C1.27694336 22.06911133 1.42131836 21.11649414 1.57006836 20.13500977 C1.75569336 18.88075195 1.94131836 17.62649414 2.13256836 16.33422852 C2.31819336 15.09286133 2.50381836 13.85149414 2.69506836 12.57250977 C3.05357247 9.6628648 3.22199091 6.94472829 3.13256836 4.02172852 C0.13924097 5.01950431 -0.81509479 5.77393102 -2.86743164 8.02172852 C-3.86743164 7.02172852 -3.86743164 7.02172852 -3.99243164 4.02172852 C-3.82606765 0.02899276 -3.82606765 0.02899276 0 0 Z " fill="#163F26" transform="translate(172.867431640625,283.978271484375)"/>
<path d="M0 0 C0 0.99 0 1.98 0 3 C-2.31 3.66 -4.62 4.32 -7 5 C-7 5.99 -7 6.98 -7 8 C-7.020625 9.03125 -7.04125 10.0625 -7.0625 11.125 C-7.3337793 13.89674453 -7.3337793 13.89674453 -6 15 C-6 12.69 -6 10.38 -6 8 C-2.37 8 1.26 8 5 8 C4.938125 7.05125 4.87625 6.1025 4.8125 5.125 C4.9053125 3.578125 4.9053125 3.578125 5 2 C8.43373643 -0.28915762 9.04330538 -0.13052538 12.9375 0.4375 C16.29754137 0.91895389 18.74737271 1.03389777 22 0 C22.495 1.98 22.495 1.98 23 4 C19.37 4 15.74 4 12 4 C12 4.66 12 5.32 12 6 C12.66 6.33 13.32 6.66 14 7 C14 7.99 14 8.98 14 10 C13.34 10.33 12.68 10.66 12 11 C11.34227572 14.02934491 11.34227572 14.02934491 11 17 C10.01 17 9.02 17 8 17 C8 14.69 8 12.38 8 10 C7.01 10 6.02 10 5 10 C5 12.31 5 14.62 5 17 C3.02 17 1.04 17 -1 17 C-1 16.01 -1 15.02 -1 14 C-1.99 14 -2.98 14 -4 14 C-4 14.99 -4 15.98 -4 17 C-8 17 -12 17 -16 17 C-16.99 17.04125 -17.98 17.0825 -19 17.125 C-22 17 -22 17 -24 15 C-24.25 12 -24.25 12 -24 9 C-23.34 8.34 -22.68 7.68 -22 7 C-18.875 7.375 -18.875 7.375 -16 8 C-16 7.34 -16 6.68 -16 6 C-14.35 5.34 -12.7 4.68 -11 4 C-11.33 3.34 -11.66 2.68 -12 2 C-7.82262526 0.40861915 -4.46839215 -0.21278058 0 0 Z M-15 12 C-14 14 -14 14 -14 14 Z " fill="#567B62" transform="translate(346,311)"/>
<path d="M0 0 C2.2578125 0.5546875 2.2578125 0.5546875 3.875 1.125 C3.545 2.445 3.215 3.765 2.875 5.125 C1.885 5.125 0.895 5.125 -0.125 5.125 C0.205 6.775 0.535 8.425 0.875 10.125 C1.8340625 9.7846875 1.8340625 9.7846875 2.8125 9.4375 C7.25020291 8.98467317 10.77013141 10.54207682 14.875 12.125 C14.125 18.75 14.125 18.75 11.875 22.125 C12.514375 22.393125 13.15375 22.66125 13.8125 22.9375 C15.875 24.125 15.875 24.125 16.875 27.125 C17.865 26.795 18.855 26.465 19.875 26.125 C19.875 26.785 19.875 27.445 19.875 28.125 C20.535 28.125 21.195 28.125 21.875 28.125 C21.875 28.785 21.875 29.445 21.875 30.125 C21.215 30.125 20.555 30.125 19.875 30.125 C19.875 30.785 19.875 31.445 19.875 32.125 C19.215 32.125 18.555 32.125 17.875 32.125 C17.875 32.785 17.875 33.445 17.875 34.125 C17.215 34.125 16.555 34.125 15.875 34.125 C15.875 34.785 15.875 35.445 15.875 36.125 C15.215 36.125 14.555 36.125 13.875 36.125 C13.545 36.785 13.215 37.445 12.875 38.125 C12.215 36.145 11.555 34.165 10.875 32.125 C10.875 32.785 10.875 33.445 10.875 34.125 C8.26917629 35.05565133 7.23301776 35.27417407 4.625 34.1875 C3.75875 33.6615625 3.75875 33.6615625 2.875 33.125 C4.36 32.63 4.36 32.63 5.875 32.125 C5.875 31.465 5.875 30.805 5.875 30.125 C6.535 30.125 7.195 30.125 7.875 30.125 C7.875 29.465 7.875 28.805 7.875 28.125 C8.535 28.125 9.195 28.125 9.875 28.125 C9.75247396 24.08164073 8.25986072 22.23661979 5.5 19.5 C4.29731466 18.368964 3.08915263 17.24371705 1.875 16.125 C1.36710937 15.58101562 0.85921875 15.03703125 0.3359375 14.4765625 C-1.19719385 12.8719805 -1.19719385 12.8719805 -4.125 12.125 C-4.125 12.785 -4.125 13.445 -4.125 14.125 C-4.785 14.125 -5.445 14.125 -6.125 14.125 C-6.125 14.785 -6.125 15.445 -6.125 16.125 C-6.785 16.125 -7.445 16.125 -8.125 16.125 C-8.455 15.135 -8.785 14.145 -9.125 13.125 C-11.9934413 11.02267656 -11.9934413 11.02267656 -15.125 10.125 C-5.9558388 -0.76696811 -5.9558388 -0.76696811 0 0 Z " fill="#C8A14C" transform="translate(234.125,211.875)"/>
<path d="M0 0 C33.165 0.495 33.165 0.495 67 1 C67 1.99 67 2.98 67 4 C19.48 4 -28.04 4 -77 4 C-77 3.67 -77 3.34 -77 3 C-37.895 2.505 -37.895 2.505 2 2 C1.01 1.01 1.01 1.01 0 0 Z " fill="#CAAE74" transform="translate(302,273)"/>
<path d="M0 0 C0.33 0.66 0.66 1.32 1 2 C0.67 2.99 0.34 3.98 0 5 C0.00536553 6.35479692 0.04914864 7.70981746 0.125 9.0625 C0.08375 10.361875 0.0425 11.66125 0 13 C-0.99 13.66 -1.98 14.32 -3 15 C-3.99 14.67 -4.98 14.34 -6 14 C-6.125 11.625 -6.125 11.625 -6 9 C-5.34 8.34 -4.68 7.68 -4 7 C-4.66 6.67 -5.32 6.34 -6 6 C-6.33 8.64 -6.66 11.28 -7 14 C-8.77074917 14.02705729 -10.54161711 14.04642195 -12.3125 14.0625 C-13.29863281 14.07410156 -14.28476563 14.08570313 -15.30078125 14.09765625 C-18 14 -18 14 -21 13 C-22.155 13.350625 -23.31 13.70125 -24.5 14.0625 C-25.655 14.371875 -26.81 14.68125 -28 15 C-28.99 14.34 -29.98 13.68 -31 13 C-31 12.01 -31 11.02 -31 10 C-30.01 10 -29.02 10 -28 10 C-28.061875 8.576875 -28.061875 8.576875 -28.125 7.125 C-28 4 -28 4 -26 2 C-24 5 -24 5 -24 8 C-23.566875 7.505 -23.13375 7.01 -22.6875 6.5 C-21 5 -21 5 -18 5 C-18 5.66 -18 6.32 -18 7 C-17.49210938 6.71125 -16.98421875 6.4225 -16.4609375 6.125 C-12.12191875 3.78485506 -9.06064817 2.49393518 -4 3 C-4 2.34 -4 1.68 -4 1 C-2.68 0.67 -1.36 0.34 0 0 Z " fill="#112C17" transform="translate(246,314)"/>
<path d="M0 0 C3 1 3 1 4.4375 3.375 C6.16739148 7.38834823 7.57640246 11.45802751 8.9375 15.609375 C9.88127065 18.3072736 9.88127065 18.3072736 13 20 C12.67 21.32 12.34 22.64 12 24 C8.7 23.67 5.4 23.34 2 23 C2.33 21.02 2.66 19.04 3 17 C1.02 17 -0.96 17 -3 17 C-2.67 18.98 -2.34 20.96 -2 23 C-4.64 23 -7.28 23 -10 23 C-3.42941408 6.4978372 -3.42941408 6.4978372 0 0 Z " fill="#10431E" transform="translate(158,284)"/>
<path d="M0 0 C2.43816585 -0.0809723 4.87364384 -0.14046972 7.3125 -0.1875 C8.34793945 -0.22520508 8.34793945 -0.22520508 9.40429688 -0.26367188 C14.469107 -0.33707492 14.469107 -0.33707492 16.96875 1.25 C18.83268814 4.41304653 18.17676458 7.40578687 18 11 C14.27034861 13.03435531 12.33094958 14 8 14 C8.57452746 17.93075644 8.57452746 17.93075644 11 21 C10 22 10 22 7.71484375 22.09765625 C6.34005859 22.08025391 6.34005859 22.08025391 4.9375 22.0625 C4.01839844 22.05347656 3.09929687 22.04445313 2.15234375 22.03515625 C1.44207031 22.02355469 0.73179687 22.01195312 0 22 C0.495 20.515 0.495 20.515 1 19 C1.14403348 17.66636297 1.24590423 16.32781954 1.31640625 14.98828125 C1.35830078 14.23095703 1.40019531 13.47363281 1.44335938 12.69335938 C1.48267578 11.90767578 1.52199219 11.12199219 1.5625 10.3125 C1.60568359 9.51521484 1.64886719 8.71792969 1.69335938 7.89648438 C1.79927368 5.93118553 1.90012551 3.96561504 2 2 C1.34 2 0.68 2 0 2 C0 1.34 0 0.68 0 0 Z M8 2 C8 4.97 8 7.94 8 11 C9.32 10.67 10.64 10.34 12 10 C12 7.69 12 5.38 12 3 C11.01 3.33 10.02 3.66 9 4 C8.67 3.34 8.34 2.68 8 2 Z " fill="#314F3C" transform="translate(223,285)"/>
<path d="M0 0 C0.93423645 3.01031744 1.04449911 3.86650268 0 7 C-0.66 7 -1.32 7 -2 7 C-2.66 6.01 -3.32 5.02 -4 4 C-6.05925139 3.27617533 -6.05925139 3.27617533 -8 3 C-8 3.99 -8 4.98 -8 6 C-6.906875 6.4125 -5.81375 6.825 -4.6875 7.25 C-1.48454617 8.65332257 0.52494198 9.68111945 2 13 C2.0625 16.5625 2.0625 16.5625 1 20 C-2.63998046 22.91198437 -5.40122811 23.16028031 -9.875 22.6875 C-11.25283571 22.47604997 -12.62915645 22.25284448 -14 22 C-14 19.36 -14 16.72 -14 14 C-13.01 14 -12.02 14 -11 14 C-11 14.99 -11 15.98 -11 17 C-10.34 17 -9.68 17 -9 17 C-8.67 17.66 -8.34 18.32 -8 19 C-7.34 18.67 -6.68 18.34 -6 18 C-5.34786708 15.97536745 -5.34786708 15.97536745 -5 14 C-6.32 14 -7.64 14 -9 14 C-9 13.34 -9 12.68 -9 12 C-9.639375 11.79375 -10.27875 11.5875 -10.9375 11.375 C-13 10 -13 10 -13.9375 7.125 C-14 4 -14 4 -12.75 1.6875 C-8.83412999 -2.08851751 -4.91203364 -0.72472628 0 0 Z M-4 16 C-3 18 -3 18 -3 18 Z " fill="#254B35" transform="translate(146,285)"/>
<path d="M0 0 C0 0.66 0 1.32 0 2 C0.99 2 1.98 2 3 2 C3 1.34 3 0.68 3 0 C3.66 0 4.32 0 5 0 C5 0.66 5 1.32 5 2 C5.66 2 6.32 2 7 2 C8.42944945 4.35438733 9.08661261 5.48032433 8.625 8.25 C8.315625 9.11625 8.315625 9.11625 8 10 C8.99 10.33 9.98 10.66 11 11 C5.99632677 12.33431286 -1.2418865 13.37905675 -6 11 C-9.00474497 10.86440682 -11.99068847 10.95700984 -15 11 C-15 7.37 -15 3.74 -15 0 C-11.6796875 0.04882812 -11.6796875 0.04882812 -8.359375 0.09765625 C-6.00706224 0.0838463 -6.00706224 0.0838463 -3.828125 -0.56640625 C-2 -1 -2 -1 0 0 Z " fill="#153E1D" transform="translate(146,317)"/>
<path d="M0 0 C3.27595061 1.15504642 4.52711635 2.71938732 6.6953125 5.40625 C9.5150547 9.01260651 9.5150547 9.01260651 13.5703125 10.90625 C13.2403125 12.55625 12.9103125 14.20625 12.5703125 15.90625 C6.16702057 17.44778324 2.36349366 16.62756168 -3.4140625 13.4375 C-5.4296875 11.90625 -5.4296875 11.90625 -6.6171875 8.84375 C-6.3046875 3.94791667 -6.3046875 3.94791667 -5.4296875 1.90625 C-2.4296875 -0.09375 -2.4296875 -0.09375 0 0 Z " fill="#CDA94E" transform="translate(256.4296875,203.09375)"/>
<path d="M0 0 C0.66 0.33 1.32 0.66 2 1 C2 4.63 2 8.26 2 12 C-0.24609375 11.96744792 -2.4921875 11.93489583 -4.73828125 11.90234375 C-7.16861334 11.90342145 -7.16861334 11.90342145 -10 13 C-10.61875 12.67 -11.2375 12.34 -11.875 12 C-15.19647636 10.4369523 -17.76178138 11.59939986 -21.125 12.6875 C-23 13 -23 13 -26 11 C-25.67 10.34 -25.34 9.68 -25 9 C-24.01 9 -23.02 9 -22 9 C-22 8.01 -22 7.02 -22 6 C-21.01 5.67 -20.02 5.34 -19 5 C-17.31461399 3.00334686 -17.31461399 3.00334686 -16 1 C-15.34 1.66 -14.68 2.32 -14 3 C-10.33865009 4.08850943 -7.68061127 3.9464429 -4 3 C-3.01 4.485 -3.01 4.485 -2 6 C-1.34 4.02 -0.68 2.04 0 0 Z " fill="#195423" transform="translate(209,316)"/>
<path d="M0 0 C3 2 3 2 3.6875 5.125 C3.790625 6.07375 3.89375 7.0225 4 8 C4.99 8 5.98 8 7 8 C7.33 5.69 7.66 3.38 8 1 C8.99 1.33 9.98 1.66 11 2 C11.08096803 3.45742463 11.13917774 4.91612807 11.1875 6.375 C11.23970703 7.59316406 11.23970703 7.59316406 11.29296875 8.8359375 C11.19628906 9.55007813 11.09960938 10.26421875 11 11 C7.70371318 13.19752455 7.34752205 13.19391535 3.6875 12.625 C0.87481983 12.22646063 -1.57628031 12.01047782 -4.4375 12.0625 C-7 12 -7 12 -9 10 C-9.33 10.66 -9.66 11.32 -10 12 C-10.66 12 -11.32 12 -12 12 C-12 9.03 -12 6.06 -12 3 C-9.75390625 3.09765625 -7.5078125 3.1953125 -5.26171875 3.29296875 C-2.52148416 2.93801608 -1.70828921 2.10633718 0 0 Z " fill="#173E1E" transform="translate(289,316)"/>
<path d="M0 0 C2 2 2 2 2 5 C2.7425 5.144375 3.485 5.28875 4.25 5.4375 C6.52027739 5.90187492 8.75759479 6.41863569 11 7 C11 7.99 11 8.98 11 10 C13.97 10.495 13.97 10.495 17 11 C16.67 12.32 16.34 13.64 16 15 C16.66 15.33 17.32 15.66 18 16 C15.56756757 21.71621622 15.56756757 21.71621622 13.125 22.9375 C10.61443409 23.01134017 8.43126433 22.60781608 6 22 C5.67 21.01 5.34 20.02 5 19 C4.16666667 16.83333333 4.16666667 16.83333333 2 16 C2.66 15.34 3.32 14.68 4 14 C4.71927295 11.68234271 5.3909893 9.34904126 6 7 C5.21625 6.855625 4.4325 6.71125 3.625 6.5625 C1 6 1 6 -1 5 C-1.33 5.66 -1.66 6.32 -2 7 C-2.66 5.35 -3.32 3.7 -4 2 C-2.68 1.34 -1.36 0.68 0 0 Z M7 11 C6.67 11.66 6.34 12.32 6 13 C6.99 14.485 6.99 14.485 8 16 C8 14.35 8 12.7 8 11 C7.67 11 7.34 11 7 11 Z " fill="#CFB059" transform="translate(243,217)"/>
<path d="M0 0 C2.2578125 0.5546875 2.2578125 0.5546875 3.875 1.125 C3.545 2.445 3.215 3.765 2.875 5.125 C1.885 5.125 0.895 5.125 -0.125 5.125 C0.21944881 7.59766765 0.21944881 7.59766765 0.875 10.125 C1.535 10.455 2.195 10.785 2.875 11.125 C1.885 11.62 1.885 11.62 0.875 12.125 C0.875 12.785 0.875 13.445 0.875 14.125 C2.195 13.465 3.515 12.805 4.875 12.125 C5.205 14.105 5.535 16.085 5.875 18.125 C6.865 18.125 7.855 18.125 8.875 18.125 C8.875 19.115 8.875 20.105 8.875 21.125 C4.9131086 19.36415938 0.86032225 17.0956445 -1.125 13.125 C-2.115 12.795 -3.105 12.465 -4.125 12.125 C-4.125 12.785 -4.125 13.445 -4.125 14.125 C-4.785 14.125 -5.445 14.125 -6.125 14.125 C-6.125 14.785 -6.125 15.445 -6.125 16.125 C-6.785 16.125 -7.445 16.125 -8.125 16.125 C-8.455 15.135 -8.785 14.145 -9.125 13.125 C-11.9934413 11.02267656 -11.9934413 11.02267656 -15.125 10.125 C-5.9558388 -0.76696811 -5.9558388 -0.76696811 0 0 Z " fill="#C8A560" transform="translate(234.125,211.875)"/>
<path d="M0 0 C1 3 1 3 0 6 C0.66 5.67 1.32 5.34 2 5 C2.65213292 2.97536745 2.65213292 2.97536745 3 1 C3.66 1.33 4.32 1.66 5 2 C5 2.33 5 2.66 5 3 C5.969375 3.28875 6.93875 3.5775 7.9375 3.875 C11 5 11 5 12 7 C14.30965848 8.05352843 16.6429774 9.05719096 19 10 C18.34 11.32 17.68 12.64 17 14 C11.73912107 14.31565274 8.50751449 13.7659748 4 11 C2.125 9.3125 2.125 9.3125 1 8 C-0.32 9.32 -1.64 10.64 -3 12 C-2.34 12.33 -1.68 12.66 -1 13 C-2.32 13.33 -3.64 13.66 -5 14 C-5.33 12.35 -5.66 10.7 -6 9 C-5.01 9 -4.02 9 -3 9 C-3.63979849 6.96758273 -3.63979849 6.96758273 -5 5 C-7.55519921 4.18828772 -7.55519921 4.18828772 -10 4 C-7.18342017 0.590456 -4.32639749 0 0 0 Z " fill="#DABD5E" transform="translate(240,208)"/>
<path d="M0 0 C6.2295758 -0.07589768 12.45903295 -0.12853504 18.68896484 -0.16479492 C20.80945288 -0.17990645 22.92990954 -0.2003964 25.05029297 -0.22631836 C28.09350311 -0.26259786 31.13630103 -0.27970242 34.1796875 -0.29296875 C35.13181122 -0.30845261 36.08393494 -0.32393646 37.06491089 -0.33988953 C38.38605392 -0.34022942 38.38605392 -0.34022942 39.73388672 -0.34057617 C40.51110077 -0.34723801 41.28831482 -0.35389984 42.08908081 -0.36076355 C42.71968414 -0.24171158 43.35028748 -0.12265961 44 0 C44.66 0.99 45.32 1.98 46 3 C45 4 45 4 43.09544373 4.12025452 C42.26271439 4.11803391 41.42998505 4.11581329 40.57202148 4.11352539 C39.63112167 4.11344986 38.69022186 4.11337433 37.72080994 4.11329651 C36.69790359 4.10813522 35.67499725 4.10297394 34.62109375 4.09765625 C33.57929459 4.0962413 32.53749542 4.09482635 31.46412659 4.09336853 C28.12188906 4.0877508 24.77971743 4.0751953 21.4375 4.0625 C19.17773534 4.05748728 16.91796963 4.05292398 14.65820312 4.04882812 C9.10544609 4.03777561 3.55272775 4.02102024 -2 4 C-2 3.67 -2 3.34 -2 3 C1.465 2.505 1.465 2.505 5 2 C3.35 1.67 1.7 1.34 0 1 C0 0.67 0 0.34 0 0 Z " fill="#D3BA89" transform="translate(280,311)"/>
<path d="M0 0 C0.99 0.33 1.98 0.66 3 1 C4.13518587 3.3974889 5.09629166 5.70465546 6 8.1875 C7.77925556 12.93681497 9.64517188 17.49358785 12 22 C11 23 11 23 7.9375 23.0625 C6.968125 23.041875 5.99875 23.02125 5 23 C4.79375 22.05125 4.5875 21.1025 4.375 20.125 C3.29166667 16.70833333 3.29166667 16.70833333 -0.125 15.625 C-1.07375 15.41875 -2.0225 15.2125 -3 15 C-2.814375 14.443125 -2.62875 13.88625 -2.4375 13.3125 C-1.84408801 10.97677197 -1.84408801 10.97677197 -2.5 8.5625 C-3.0623328 5.6805444 -2.85436555 3.79610544 -2 1 C-1.34 0.67 -0.68 0.34 0 0 Z " fill="#1B4326" transform="translate(358,284)"/>
<path d="M0 0 C2.64 0 5.28 0 8 0 C8 0.66 8 1.32 8 2 C7.01 2.495 7.01 2.495 6 3 C5.7424516 5.26232858 5.5937183 7.5374882 5.5 9.8125 C5.16126635 17.98444932 5.16126635 17.98444932 3 21 C-1.17673547 22.39224516 -5.06202503 22.57615472 -9.3125 21.3125 C-11.73526224 19.42812937 -12.22437034 17.97324703 -13 15 C-13.14983588 12.30794876 -13.09155081 9.70074884 -13 7 C-12.731875 7.639375 -12.46375 8.27875 -12.1875 8.9375 C-11.11332248 11.33131686 -11.11332248 11.33131686 -8 12 C-6.875 13.9375 -6.875 13.9375 -6 16 C-5.67 16.66 -5.34 17.32 -5 18 C-3.33388095 18.042721 -1.66617115 18.04063832 0 18 C1.99616554 16.00383446 1.40983427 12.18298037 1.5625 9.4375 C1.60568359 8.72658203 1.64886719 8.01566406 1.69335938 7.28320312 C1.79971777 5.52238088 1.90038846 3.7612168 2 2 C1.34 2 0.68 2 0 2 C0 1.34 0 0.68 0 0 Z " fill="#4A6954" transform="translate(205,285)"/>
<path d="M0 0 C0 1.65 0 3.3 0 5 C-1.65 5 -3.3 5 -5 5 C-2.525 5.99 -2.525 5.99 0 7 C0 7.66 0 8.32 0 9 C-5.94 9 -11.88 9 -18 9 C-18.95904856 5.16380575 -18.91892116 3.67568464 -18 0 C-16.68 0 -15.36 0 -14 0 C-13.67 0.66 -13.34 1.32 -13 2 C-12.67 1.34 -12.34 0.68 -12 0 C-8.19369441 -1.40974281 -3.6696002 -1.8348001 0 0 Z " fill="#3B5E45" transform="translate(276,319)"/>
<path d="M0 0 C3.36004137 0.48145389 5.80987271 0.59639777 9.0625 -0.4375 C9.3925 0.8825 9.7225 2.2025 10.0625 3.5625 C6.4325 3.5625 2.8025 3.5625 -0.9375 3.5625 C-0.9375 4.2225 -0.9375 4.8825 -0.9375 5.5625 C-0.2775 5.8925 0.3825 6.2225 1.0625 6.5625 C1.0625 7.5525 1.0625 8.5425 1.0625 9.5625 C0.0725 10.0575 0.0725 10.0575 -0.9375 10.5625 C-1.59522428 13.59184491 -1.59522428 13.59184491 -1.9375 16.5625 C-2.9275 16.5625 -3.9175 16.5625 -4.9375 16.5625 C-4.9375 14.2525 -4.9375 11.9425 -4.9375 9.5625 C-5.9275 9.5625 -6.9175 9.5625 -7.9375 9.5625 C-7.9375 11.5425 -7.9375 13.5225 -7.9375 15.5625 C-8.5975 15.5625 -9.2575 15.5625 -9.9375 15.5625 C-10.2675 12.9225 -10.5975 10.2825 -10.9375 7.5625 C-9.9475 7.5625 -8.9575 7.5625 -7.9375 7.5625 C-7.999375 6.61375 -8.06125 5.665 -8.125 4.6875 C-8.063125 3.65625 -8.00125 2.625 -7.9375 1.5625 C-4.50376357 -0.72665762 -3.89419462 -0.56802538 0 0 Z " fill="#416746" transform="translate(358.9375,311.4375)"/>
<path d="M0 0 C1.25159912 0.04713135 2.50319824 0.0942627 3.79272461 0.14282227 C4.45719101 0.16643326 5.12165741 0.19004425 5.80625916 0.21437073 C7.93607115 0.29116537 10.06553382 0.37512065 12.19506836 0.45922852 C13.63580627 0.51243345 15.07656141 0.56517394 16.51733398 0.61743164 C20.05596149 0.74680138 23.59430977 0.88259592 27.13256836 1.02172852 C26.8741862 2.99112956 26.61580404 4.9605306 26.35742188 6.92993164 C26.06664004 9.63505517 26.06462805 12.30411618 26.13256836 15.02172852 C25.14256836 15.02172852 24.15256836 15.02172852 23.13256836 15.02172852 C23.13256836 14.36172852 23.13256836 13.70172852 23.13256836 13.02172852 C22.14256836 13.02172852 21.15256836 13.02172852 20.13256836 13.02172852 C19.47256836 9.72172852 18.81256836 6.42172852 18.13256836 3.02172852 C17.47256836 3.02172852 16.81256836 3.02172852 16.13256836 3.02172852 C16.46256836 4.34172852 16.79256836 5.66172852 17.13256836 7.02172852 C16.14256836 7.02172852 15.15256836 7.02172852 14.13256836 7.02172852 C14.13256836 5.70172852 14.13256836 4.38172852 14.13256836 3.02172852 C9.84256836 2.69172852 5.55256836 2.36172852 1.13256836 2.02172852 C0.47256836 3.67172852 -0.18743164 5.32172852 -0.86743164 7.02172852 C-1.85743164 7.02172852 -2.84743164 7.02172852 -3.86743164 7.02172852 C-3.9099752 5.02218106 -3.90823947 3.02131215 -3.86743164 1.02172852 C-2.86743164 0.02172852 -2.86743164 0.02172852 0 0 Z " fill="#486352" transform="translate(172.867431640625,283.978271484375)"/>
<path d="M0 0 C1.61949011 2.57213134 2.04408751 3.67669159 1.625 6.75 C1.315625 7.86375 1.315625 7.86375 1 9 C0.34 9 -0.32 9 -1 9 C-1.66 10.32 -2.32 11.64 -3 13 C-3.66 13 -4.32 13 -5 13 C-5 13.66 -5 14.32 -5 15 C-5.66 15 -6.32 15 -7 15 C-7 15.66 -7 16.32 -7 17 C-7.99 17.33 -8.98 17.66 -10 18 C-10.66 17.34 -11.32 16.68 -12 16 C-11.01 16 -10.02 16 -9 16 C-8.34 14.68 -7.68 13.36 -7 12 C-7.99 11.67 -8.98 11.34 -10 11 C-10.66 11.66 -11.32 12.32 -12 13 C-12 12.34 -12 11.68 -12 11 C-14.97 11 -17.94 11 -21 11 C-21 10.67 -21 10.34 -21 10 C-19.948125 9.773125 -18.89625 9.54625 -17.8125 9.3125 C-14.63433944 8.43993888 -13.92051313 7.91653879 -11.5 5.375 C-9 3 -9 3 -5.3125 2.875 C-4.219375 2.91625 -3.12625 2.9575 -2 3 C-1.34 2.01 -0.68 1.02 0 0 Z " fill="#B9944B" transform="translate(245,243)"/>
<path d="M0 0 C2.64 0 5.28 0 8 0 C8 0.66 8 1.32 8 2 C7.01 2.495 7.01 2.495 6 3 C5.67 9.27 5.34 15.54 5 22 C3.68 21.67 2.36 21.34 1 21 C1 20.34 1 19.68 1 19 C0.34 19 -0.32 19 -1 19 C-2.5078125 17.03125 -2.5078125 17.03125 -4.125 14.5 C-4.93324219 13.24703125 -4.93324219 13.24703125 -5.7578125 11.96875 C-6.37269531 10.99421875 -6.37269531 10.99421875 -7 10 C-5.68 9.34 -4.36 8.68 -3 8 C-3 7.01 -3 6.02 -3 5 C-2.566875 5.639375 -2.13375 6.27875 -1.6875 6.9375 C-0.08760823 9.26746003 -0.08760823 9.26746003 3 10 C2.74438677 7.6568787 2.40729228 5.32156597 2 3 C1.34 2.67 0.68 2.34 0 2 C0 1.34 0 0.68 0 0 Z " fill="#265638" transform="translate(300,285)"/>
<path d="M0 0 C2.00720923 0.28674418 4.0085944 0.61866701 6 1 C6 2.32 6 3.64 6 5 C5.01 5.495 5.01 5.495 4 6 C3.34227572 9.02934491 3.34227572 9.02934491 3 12 C2.01 12 1.02 12 0 12 C0 10.35 0 8.7 0 7 C-0.66 7 -1.32 7 -2 7 C-2.99 8.98 -3.98 10.96 -5 13 C-6.98 12.34 -8.96 11.68 -11 11 C-11 8.36 -11 5.72 -11 3 C-10.01 3 -9.02 3 -8 3 C-8 3.99 -8 4.98 -8 6 C-7.34 6 -6.68 6 -6 6 C-5.67 5.01 -5.34 4.02 -5 3 C-3 1.875 -3 1.875 -1 1 C-0.67 0.67 -0.34 0.34 0 0 Z " fill="#43644C" transform="translate(312,316)"/>
<path d="M0 0 C12.21 0 24.42 0 37 0 C37 0.33 37 0.66 37 1 C33.37 1.33 29.74 1.66 26 2 C27.32 2.66 28.64 3.32 30 4 C19.77 4 9.54 4 -1 4 C-0.67 2.68 -0.34 1.36 0 0 Z " fill="#CCB997" transform="translate(208,311)"/>
<path d="M0 0 C2.64 0 5.28 0 8 0 C8 0.66 8 1.32 8 2 C8.639375 2.226875 9.27875 2.45375 9.9375 2.6875 C12 4 12 4 12.75 6.625 C12.87375 7.800625 12.87375 7.800625 13 9 C11.02 9.99 11.02 9.99 9 11 C9.33 11.66 9.66 12.32 10 13 C9.01 12.67 8.02 12.34 7 12 C6.67 13.98 6.34 15.96 6 18 C5.34 18 4.68 18 4 18 C1.57869669 14.36804504 1.78977215 12.61650652 1.875 8.3125 C1.90207031 6.54326172 1.90207031 6.54326172 1.9296875 4.73828125 C1.95289063 3.83464844 1.97609375 2.93101562 2 2 C1.34 2 0.68 2 0 2 C0 1.34 0 0.68 0 0 Z " fill="#143A22" transform="translate(285,285)"/>
<path d="M0 0 C2 3 2 3 2 5 C2.66 5 3.32 5 4 5 C4.66 6.32 5.32 7.64 6 9 C3.8125 11.5625 3.8125 11.5625 1 14 C-1.824381 13.86863344 -3.49475261 13.25262369 -6 12 C-6 12.66 -6 13.32 -6 14 C-5.01 14.33 -4.02 14.66 -3 15 C-4.32 15.33 -5.64 15.66 -7 16 C-8.1875 13.8125 -8.1875 13.8125 -9 11 C-7.12969902 6.44114136 -3.50581185 3.34999799 0 0 Z " fill="#CEA856" transform="translate(253,186)"/>
<path d="M0 0 C0.66 0 1.32 0 2 0 C2.33 1.65 2.66 3.3 3 5 C3.99 5 4.98 5 6 5 C6.33 6.65 6.66 8.3 7 10 C5.68 10 4.36 10 3 10 C3.34227572 12.97065509 3.34227572 12.97065509 4 16 C4.66 16.33 5.32 16.66 6 17 C5 18 5 18 2.93359375 18.09765625 C2.10988281 18.08605469 1.28617188 18.07445312 0.4375 18.0625 C-0.38878906 18.05347656 -1.21507812 18.04445313 -2.06640625 18.03515625 C-3.02353516 18.01775391 -3.02353516 18.01775391 -4 18 C-4 11.88989328 -2.5849767 5.53923579 0 0 Z " fill="#1A442D" transform="translate(247,289)"/>
<path d="M0 0 C0.33 0.66 0.66 1.32 1 2 C-0.4375 4.625 -0.4375 4.625 -2 7 C-0.68 7.33 0.64 7.66 2 8 C2 7.34 2 6.68 2 6 C2.66 6 3.32 6 4 6 C4 6.66 4 7.32 4 8 C4.99 8.33 5.98 8.66 7 9 C6.34 9 5.68 9 5 9 C5 9.66 5 10.32 5 11 C4.34 11 3.68 11 3 11 C3 11.66 3 12.32 3 13 C1.36395804 14.37073786 -0.30678061 15.70055256 -2 17 C-2.53625 17.5775 -3.0725 18.155 -3.625 18.75 C-5 20 -5 20 -8 20 C-8.33 19.01 -8.66 18.02 -9 17 C-8.319375 16.443125 -7.63875 15.88625 -6.9375 15.3125 C-6.298125 14.549375 -5.65875 13.78625 -5 13 C-5.309375 11.88625 -5.309375 11.88625 -5.625 10.75 C-6 8 -6 8 -4.74609375 5.90234375 C-3.21375314 3.88648035 -1.6465853 1.92340254 0 0 Z " fill="#CAA75E" transform="translate(278,202)"/>
<path d="M0 0 C2.31 0.33 4.62 0.66 7 1 C7 1.66 7 2.32 7 3 C7.66 3.33 8.32 3.66 9 4 C9.66 2.68 10.32 1.36 11 0 C12.5625 1.75 12.5625 1.75 14 4 C13.6875 6.25 13.6875 6.25 13 8 C13.99 8.33 14.98 8.66 16 9 C11.09961113 10.30677037 6.03761016 10.31718286 1 10 C0 9 0 9 -0.09765625 6.93359375 C-0.08605469 6.10988281 -0.07445312 5.28617187 -0.0625 4.4375 C-0.05347656 3.61121094 -0.04445312 2.78492188 -0.03515625 1.93359375 C-0.02355469 1.29550781 -0.01195312 0.65742188 0 0 Z " fill="#40664E" transform="translate(141,319)"/>
<path d="M0 0 C0.66 0.99 1.32 1.98 2 3 C2 2.34 2 1.68 2 1 C5.28353549 -0.64176774 8.89519638 -0.18454039 12.5 -0.1875 C13.28503906 -0.19974609 14.07007813 -0.21199219 14.87890625 -0.22460938 C16.92063726 -0.22986254 18.96192251 -0.1222018 21 0 C21.66 0.66 22.32 1.32 23 2 C21 4 21 4 19 5 C18.67 4.34 18.34 3.68 18 3 C10.43592467 2.79410279 10.43592467 2.79410279 3 4 C3 6.64 3 9.28 3 12 C0.03 11.505 0.03 11.505 -3 11 C-3 3 -3 3 -1.5 1.3125 C-0.7575 0.6628125 -0.7575 0.6628125 0 0 Z " fill="#041C00" transform="translate(157,316)"/>
<path d="M0 0 C1.5 1.3125 1.5 1.3125 3 3 C3 3.99 3 4.98 3 6 C3.433125 5.505 3.86625 5.01 4.3125 4.5 C6 3 6 3 9 3 C11.29013653 6.4352048 11.17842973 7.985331 11 12 C10.319375 11.79375 9.63875 11.5875 8.9375 11.375 C5.84911538 10.78145173 5.84911538 10.78145173 2.375 12.0625 C0.704375 12.5265625 0.704375 12.5265625 -1 13 C-1.99 12.34 -2.98 11.68 -4 11 C-4 10.01 -4 9.02 -4 8 C-3.01 8 -2.02 8 -1 8 C-1.020625 7.05125 -1.04125 6.1025 -1.0625 5.125 C-1 2 -1 2 0 0 Z " fill="#33593F" transform="translate(219,316)"/>
<path d="M0 0 C0 0.99 0 1.98 0 3 C-2.31 3.66 -4.62 4.32 -7 5 C-7 5.99 -7 6.98 -7 8 C-7 8.33 -7 8.66 -7 9 C-9.31 9.33 -11.62 9.66 -14 10 C-14.33 10.99 -14.66 11.98 -15 13 C-16.98 13.33 -18.96 13.66 -21 14 C-20.835 13.401875 -20.67 12.80375 -20.5 12.1875 C-19.8885876 9.88655664 -19.8885876 9.88655664 -20 7 C-18.02 7.495 -18.02 7.495 -16 8 C-16 7.34 -16 6.68 -16 6 C-14.35 5.34 -12.7 4.68 -11 4 C-11.33 3.34 -11.66 2.68 -12 2 C-7.82262526 0.40861915 -4.46839215 -0.21278058 0 0 Z " fill="#1F4123" transform="translate(346,311)"/>
<path d="M0 0 C1.65 0 3.3 0 5 0 C5.33 0.99 5.66 1.98 6 3 C7.175625 3.0928125 7.175625 3.0928125 8.375 3.1875 C9.24125 3.455625 10.1075 3.72375 11 4 C12.3125 6.5625 12.3125 6.5625 13 9 C11.68 8.67 10.36 8.34 9 8 C9.33 9.65 9.66 11.3 10 13 C7.69 12.34 5.38 11.68 3 11 C3 10.34 3 9.68 3 9 C2.01 9 1.02 9 0 9 C0.33 8.01 0.66 7.02 1 6 C1.66 6.33 2.32 6.66 3 7 C3.33 6.34 3.66 5.68 4 5 C2.35 4.67 0.7 4.34 -1 4 C-0.67 2.68 -0.34 1.36 0 0 Z " fill="#C09340" transform="translate(253,205)"/>
<path d="M0 0 C0.66 0.33 1.32 0.66 2 1 C1.566875 1.8353125 1.566875 1.8353125 1.125 2.6875 C-0.0413253 5.08494645 -1.0339881 7.51596939 -2 10 C-1.34 10.66 -0.68 11.32 0 12 C0.66 11.67 1.32 11.34 2 11 C2.33 12.32 2.66 13.64 3 15 C1.02 15.66 -0.96 16.32 -3 17 C-2.67 18.98 -2.34 20.96 -2 23 C-4.64 23 -7.28 23 -10 23 C-3.42941408 6.4978372 -3.42941408 6.4978372 0 0 Z " fill="#315C41" transform="translate(158,284)"/>
<path d="M0 0 C3.3 0 6.6 0 10 0 C10 0.66 10 1.32 10 2 C11.32 2 12.64 2 14 2 C13.125 6.75 13.125 6.75 12 9 C11.175 8.67 10.35 8.34 9.5 8 C5.4126017 6.83217191 2.23076656 6.8541115 -2 7 C-1.34 4.69 -0.68 2.38 0 0 Z " fill="#BC8C37" transform="translate(270,175)"/>
<path d="M0 0 C0.33 0.66 0.66 1.32 1 2 C1.66 2 2.32 2 3 2 C3 2.66 3 3.32 3 4 C2.34 4 1.68 4 1 4 C1 4.66 1 5.32 1 6 C0.34 6 -0.32 6 -1 6 C-1 6.66 -1 7.32 -1 8 C-1.66 8 -2.32 8 -3 8 C-3 8.66 -3 9.32 -3 10 C-3.66 10 -4.32 10 -5 10 C-5.33 10.66 -5.66 11.32 -6 12 C-6.66 10.02 -7.32 8.04 -8 6 C-8 6.66 -8 7.32 -8 8 C-10.60582371 8.93065133 -11.64198224 9.14917407 -14.25 8.0625 C-14.8275 7.711875 -15.405 7.36125 -16 7 C-15.01 6.67 -14.02 6.34 -13 6 C-13 5.34 -13 4.68 -13 4 C-12.34 4 -11.68 4 -11 4 C-11 3.34 -11 2.68 -11 2 C-8.6875 1.3125 -8.6875 1.3125 -6 1 C-4.1875 2.4375 -4.1875 2.4375 -3 4 C-2.67 3.01 -2.34 2.02 -2 1 C-1.34 0.67 -0.68 0.34 0 0 Z " fill="#C8A562" transform="translate(253,238)"/>
<path d="M0 0 C0.33 0 0.66 0 1 0 C1 3.3 1 6.6 1 10 C4.9254644 7.52174919 4.9254644 7.52174919 6 5 C7.32 5 8.64 5 10 5 C10 5.66 10 6.32 10 7 C10.66 7.33 11.32 7.66 12 8 C10.02 8.33 8.04 8.66 6 9 C6.57452746 12.93075644 6.57452746 12.93075644 9 16 C8 17 8 17 5.71484375 17.09765625 C4.34005859 17.08025391 4.34005859 17.08025391 2.9375 17.0625 C2.01839844 17.05347656 1.09929687 17.04445313 0.15234375 17.03515625 C-0.55792969 17.02355469 -1.26820313 17.01195312 -2 17 C-1.505 15.515 -1.505 15.515 -1 14 C-0.77439324 11.60745424 -0.59151405 9.21071877 -0.4375 6.8125 C-0.35371094 5.54019531 -0.26992187 4.26789063 -0.18359375 2.95703125 C-0.12300781 1.98121094 -0.06242188 1.00539063 0 0 Z " fill="#3F5D4A" transform="translate(225,290)"/>
<path d="M0 0 C0.33 0.99 0.66 1.98 1 3 C1.66 3.33 2.32 3.66 3 4 C2.67 4.66 2.34 5.32 2 6 C2.99 6.33 3.98 6.66 5 7 C6.02104551 7.97850195 7.0206121 8.97980427 8 10 C8.99 10.66 9.98 11.32 11 12 C10.01 12 9.02 12 8 12 C8.33 13.32 8.66 14.64 9 16 C8.01 16 7.02 16 6 16 C6 14.35 6 12.7 6 11 C4.35 10.67 2.7 10.34 1 10 C1 10.99 1 11.98 1 13 C1 13.99 1 14.98 1 16 C-1.64 16 -4.28 16 -7 16 C-6.67 15.01 -6.34 14.02 -6 13 C-5.34 13 -4.68 13 -4 13 C-3.79503906 12.31292969 -3.59007812 11.62585938 -3.37890625 10.91796875 C-3.10949219 10.01691406 -2.84007812 9.11585938 -2.5625 8.1875 C-2.29566406 7.29417969 -2.02882813 6.40085937 -1.75390625 5.48046875 C-1.19612127 3.64526945 -0.60655425 1.81966274 0 0 Z " fill="#3E6348" transform="translate(354,291)"/>
<path d="M0 0 C1.65 0 3.3 0 5 0 C5.33 1.32 5.66 2.64 6 4 C7.32 4.33 8.64 4.66 10 5 C9.67 5.66 9.34 6.32 9 7 C8.34 7 7.68 7 7 7 C6.67 7.99 6.34 8.98 6 10 C4.68 10 3.36 10 2 10 C2 9.34 2 8.68 2 8 C1.34 8 0.68 8 0 8 C0 8.66 0 9.32 0 10 C-1.32 9.67 -2.64 9.34 -4 9 C-2.80100302 5.9168649 -1.52299523 2.93720508 0 0 Z " fill="#BF9546" transform="translate(280,200)"/>
<path d="M0 0 C3.3 0 6.6 0 10 0 C10 0.66 10 1.32 10 2 C9.34 2 8.68 2 8 2 C8 6.62 8 11.24 8 16 C7.01 15.34 6.02 14.68 5 14 C5 13.34 5 12.68 5 12 C4.34 12 3.68 12 3 12 C2.67 8.7 2.34 5.4 2 2 C1.34 2 0.68 2 0 2 C0 1.34 0 0.68 0 0 Z " fill="#184229" transform="translate(330,285)"/>
<path d="M0 0 C1.22976562 0.10828125 1.22976562 0.10828125 2.484375 0.21875 C3.56203125 0.3115625 4.6396875 0.404375 5.75 0.5 C7.35101563 0.63921875 7.35101563 0.63921875 8.984375 0.78125 C11.3179218 0.95052283 13.66032182 1 16 1 C16.33 1.66 16.66 2.32 17 3 C12.60452764 7.70943467 9.37178034 9.13112086 3 10 C4.875 4.25 4.875 4.25 6 2 C4.35 2 2.7 2 1 2 C0.67 1.34 0.34 0.68 0 0 Z " fill="#B08537" transform="translate(222,253)"/>
<path d="M0 0 C3.96 0 7.92 0 12 0 C11.01 1.485 11.01 1.485 10 3 C9.34 3 8.68 3 8 3 C7.67 5.97 7.34 8.94 7 12 C5.35 12.66 3.7 13.32 2 14 C1.34 9.38 0.68 4.76 0 0 Z " fill="#224931" transform="translate(224,286)"/>
<path d="M0 0 C1.67542976 0.28604898 3.34385343 0.61781233 5 1 C5.48828125 2.98567708 5.9765625 4.97135417 6.46484375 6.95703125 C6.91010705 8.65683202 7.44433985 10.33301954 8 12 C6.68 12 5.36 12 4 12 C2.32774271 12.30404678 0.65919896 12.63128912 -1 13 C-1.02686553 11.02090602 -1.04633375 9.04171029 -1.0625 7.0625 C-1.07410156 5.96035156 -1.08570313 4.85820312 -1.09765625 3.72265625 C-1 1 -1 1 0 0 Z " fill="#183E21" transform="translate(317,284)"/>
<path d="M0 0 C2.31 0 4.62 0 7 0 C8.0625 2.375 8.0625 2.375 9 5 C8.67 5.66 8.34 6.32 8 7 C9.32 6.67 10.64 6.34 12 6 C11.67 6.99 11.34 7.98 11 9 C8.125 9.125 8.125 9.125 5 9 C4.34 8.34 3.68 7.68 3 7 C2.67 7.66 2.34 8.32 2 9 C1.34 9 0.68 9 0 9 C0 6.03 0 3.06 0 0 Z " fill="#3F6045" transform="translate(277,319)"/>
<path d="M0 0 C0.99 0.66 1.98 1.32 3 2 C5.11280345 2.63292383 5.11280345 2.63292383 7 3 C5.68 3.99 4.36 4.98 3 6 C2.34 5.67 1.68 5.34 1 5 C1 5.66 1 6.32 1 7 C1.66 7.33 2.32 7.66 3 8 C2.67 8.99 2.34 9.98 2 11 C-5.625 12.25 -5.625 12.25 -9 10 C-8.67 9.34 -8.34 8.68 -8 8 C-7.01 8 -6.02 8 -5 8 C-5 7.01 -5 6.02 -5 5 C-4.01 4.67 -3.02 4.34 -2 4 C-0.79117904 1.99983534 -0.79117904 1.99983534 0 0 Z " fill="#415C48" transform="translate(192,317)"/>
<path d="M0 0 C10.23 0 20.46 0 31 0 C31 0.66 31 1.32 31 2 C28.00013007 2.1693475 25.00013908 2.33554793 22 2.5 C20.74123047 2.57154297 20.74123047 2.57154297 19.45703125 2.64453125 C4.76671975 3.44167994 4.76671975 3.44167994 -1 2 C-0.67 1.34 -0.34 0.68 0 0 Z " fill="#90753B" transform="translate(234,312)"/>
<path d="M0 0 C1.98 0 3.96 0 6 0 C7.45184478 4.53701494 8.23509196 8.18061476 8 13 C7.01 13 6.02 13 5 13 C5 12.34 5 11.68 5 11 C4.01 11 3.02 11 2 11 C1.34 7.37 0.68 3.74 0 0 Z " fill="#1F4529" transform="translate(191,286)"/>
<path d="M0 0 C2.97 0.495 2.97 0.495 6 1 C5.67 2.32 5.34 3.64 5 5 C4.01 5 3.02 5 2 5 C2.33 6.65 2.66 8.3 3 10 C2.21625 10.144375 1.4325 10.28875 0.625 10.4375 C-1.96421018 10.87798925 -1.96421018 10.87798925 -4 12 C-3.67 10.68 -3.34 9.36 -3 8 C-4.32 8 -5.64 8 -7 8 C-6.67 7.01 -6.34 6.02 -6 5 C-4.35 4.67 -2.7 4.34 -1 4 C-0.67 2.68 -0.34 1.36 0 0 Z " fill="#D0A74F" transform="translate(232,212)"/>
<path d="M0 0 C0.99 0.33 1.98 0.66 3 1 C3.33 2.98 3.66 4.96 4 7 C3.34 7 2.68 7 2 7 C2 7.66 2 8.32 2 9 C1.01 9 0.02 9 -1 9 C-1.33 9.99 -1.66 10.98 -2 12 C-1.01 12.66 -0.02 13.32 1 14 C-1.31 14 -3.62 14 -6 14 C-5.29771949 9.50540476 -3.99912387 5.09389959 -2 1 C-1.34 0.67 -0.68 0.34 0 0 Z " fill="#1B4028" transform="translate(274,284)"/>
<path d="M0 0 C0.33 0 0.66 0 1 0 C2.125 5.75 2.125 5.75 1 8 C2.32 8.33 3.64 8.66 5 9 C3.35 9.66 1.7 10.32 0 11 C0 13.31 0 15.62 0 18 C-2.31 18 -4.62 18 -7 18 C-7 17.01 -7 16.02 -7 15 C-6.34 14.67 -5.68 14.34 -5 14 C-4.0416631 11.65062258 -3.18214554 9.33781945 -2.375 6.9375 C-2.14554687 6.27427734 -1.91609375 5.61105469 -1.6796875 4.92773438 C-1.11324224 3.28740331 -0.55577077 1.64397843 0 0 Z " fill="#4C6B56" transform="translate(315,289)"/>
<path d="M0 0 C2.91366558 1.53629639 3.63789405 2.30059107 5.5625 5.1875 C3.9125 5.1875 2.2625 5.1875 0.5625 5.1875 C0.5625 4.1975 0.5625 3.2075 0.5625 2.1875 C-0.7575 2.1875 -2.0775 2.1875 -3.4375 2.1875 C-3.4375 1.5275 -3.4375 0.8675 -3.4375 0.1875 C-6.7375 0.1875 -10.0375 0.1875 -13.4375 0.1875 C-13.7675 0.8475 -14.0975 1.5075 -14.4375 2.1875 C-15.7575 2.1875 -17.0775 2.1875 -18.4375 2.1875 C-18.4375 2.8475 -18.4375 3.5075 -18.4375 4.1875 C-19.7575 3.8575 -21.0775 3.5275 -22.4375 3.1875 C-15.11204807 -1.85892244 -8.39038112 -4.01145959 0 0 Z " fill="#C19E60" transform="translate(283.4375,174.8125)"/>
<path d="M0 0 C1.9375 1.0625 1.9375 1.0625 4 3 C4.75 6.6875 4.75 6.6875 5 10 C2.03 10 -0.94 10 -4 10 C-3.71872579 8.51882199 -3.42466268 7.04006751 -3.125 5.5625 C-2.96257812 4.73878906 -2.80015625 3.91507812 -2.6328125 3.06640625 C-2.42398437 2.38449219 -2.21515625 1.70257813 -2 1 C-1.34 0.67 -0.68 0.34 0 0 Z " fill="#4F6756" transform="translate(364,318)"/>
<path d="M0 0 C2.625 0.375 2.625 0.375 5 1 C5 2.65 5 4.3 5 6 C3.35 6 1.7 6 0 6 C2.475 6.99 2.475 6.99 5 8 C5 8.66 5 9.32 5 10 C2.36 10 -0.28 10 -3 10 C-3.625 7.125 -3.625 7.125 -4 4 C-2.66666667 2.66666667 -1.33333333 1.33333333 0 0 Z " fill="#43674F" transform="translate(271,318)"/>
<path d="M0 0 C0.268125 0.639375 0.53625 1.27875 0.8125 1.9375 C1.88667752 4.33131686 1.88667752 4.33131686 5 5 C5.70394612 6.31403276 6.36345658 7.6520257 7 9 C8.3050581 10.68889872 9.63360658 12.3603279 11 14 C8.30798849 14.74778098 6.5280149 15.1508614 3.8125 14.375 C1.29129951 12.46236514 0.79992375 11.06637438 0 8 C-0.14983588 5.30794876 -0.09155081 2.70074884 0 0 Z " fill="#274D35" transform="translate(192,292)"/>
<path d="M0 0 C2.44724502 0.15247633 4.18634523 -0.10951849 6.5078125 -0.84375 C6.8378125 0.47625 7.1678125 1.79625 7.5078125 3.15625 C1.5678125 3.15625 -4.3721875 3.15625 -10.4921875 3.15625 C-10.1621875 2.16625 -9.8321875 1.17625 -9.4921875 0.15625 C-6.36354585 -1.40807082 -3.39422187 -0.44580825 0 0 Z " fill="#BDA782" transform="translate(361.4921875,311.84375)"/>
<path d="M0 0 C6.6 0 13.2 0 20 0 C18.02 0.99 18.02 0.99 16 2 C17.32 2.66 18.64 3.32 20 4 C12.74 4 5.48 4 -2 4 C-2 3.67 -2 3.34 -2 3 C1.465 2.505 1.465 2.505 5 2 C3.35 1.67 1.7 1.34 0 1 C0 0.67 0 0.34 0 0 Z " fill="#D5C2A1" transform="translate(280,311)"/>
<path d="M0 0 C0.99 0.33 1.98 0.66 3 1 C2.01 1.495 2.01 1.495 1 2 C1.33 3.98 1.66 5.96 2 8 C0.06257659 8.02703381 -1.87495479 8.04641125 -3.8125 8.0625 C-4.89144531 8.07410156 -5.97039062 8.08570313 -7.08203125 8.09765625 C-10 8 -10 8 -13 7 C-13 6.34 -13 5.68 -13 5 C-10.6875 3.875 -10.6875 3.875 -8 3 C-7.01 3.66 -6.02 4.32 -5 5 C-4.34 5 -3.68 5 -3 5 C-2.87625 4.360625 -2.7525 3.72125 -2.625 3.0625 C-2.41875 2.381875 -2.2125 1.70125 -2 1 C-1.34 0.67 -0.68 0.34 0 0 Z " fill="#45674F" transform="translate(269,299)"/>
<path d="M0 0 C5.42039575 -0.40652968 9.07015675 0.96006486 14 3 C13.67 3.99 13.34 4.98 13 6 C7.73946963 6.31563182 4.55426184 5.66590937 0 3 C0 2.01 0 1.02 0 0 Z " fill="#EFCF81" transform="translate(244,216)"/>
<path d="M0 0 C0.93423645 3.01031744 1.04449911 3.86650268 0 7 C-0.66 7 -1.32 7 -2 7 C-2.66 6.01 -3.32 5.02 -4 4 C-6.05925139 3.27617533 -6.05925139 3.27617533 -8 3 C-8.99 4.485 -8.99 4.485 -10 6 C-10.33 5.01 -10.66 4.02 -11 3 C-11.66 2.67 -12.32 2.34 -13 2 C-8.3683343 -1.61848883 -5.49434694 -1.02436977 0 0 Z " fill="#536E5C" transform="translate(146,285)"/>
<path d="M0 0 C0.97646484 0.04833984 1.95292969 0.09667969 2.95898438 0.14648438 C4.47008789 0.2305957 4.47008789 0.2305957 6.01171875 0.31640625 C7.55182617 0.3947168 7.55182617 0.3947168 9.12304688 0.47460938 C11.64877962 0.60383291 14.17407136 0.73877916 16.69921875 0.87890625 C16.69921875 1.53890625 16.69921875 2.19890625 16.69921875 2.87890625 C7.78921875 2.87890625 -1.12078125 2.87890625 -10.30078125 2.87890625 C-10.30078125 2.21890625 -10.30078125 1.55890625 -10.30078125 0.87890625 C-6.75064296 0.04802282 -3.63668758 -0.19140461 0 0 Z " fill="#D8AF60" transform="translate(178.30078125,273.12109375)"/>
<path d="M0 0 C1.98 0.66 3.96 1.32 6 2 C6 2.66 6 3.32 6 4 C6.928125 3.95875 7.85625 3.9175 8.8125 3.875 C12 4 12 4 15 6 C17.29714187 6.02639829 17.29714187 6.02639829 19.6875 5.625 C20.49574219 5.51414062 21.30398437 5.40328125 22.13671875 5.2890625 C22.75160156 5.19367188 23.36648437 5.09828125 24 5 C19.50846428 7.99435715 16.34167481 8.43078023 11 8 C2.83805585 5.42184088 2.83805585 5.42184088 0.73828125 1.859375 C0.49464844 1.24578125 0.25101563 0.6321875 0 0 Z " fill="#C2A068" transform="translate(211,256)"/>
<path d="M0 0 C0 1.32 0 2.64 0 4 C-3.62686272 6.96743313 -5.2453678 8 -10 8 C-10.66 6.35 -11.32 4.7 -12 3 C-11.236875 2.87625 -10.47375 2.7525 -9.6875 2.625 C-5.68734608 1.69473165 -4.35155326 0 0 0 Z " fill="#285330" transform="translate(205,319)"/>
<path d="M0 0 C0.66 0 1.32 0 2 0 C1.67 1.32 1.34 2.64 1 4 C1.66 4 2.32 4 3 4 C3.33 3.34 3.66 2.68 4 2 C4.66 4.31 5.32 6.62 6 9 C6.66 7.68 7.32 6.36 8 5 C8.33 5 8.66 5 9 5 C9 6.98 9 8.96 9 11 C6.03 11 3.06 11 0 11 C0 7.37 0 3.74 0 0 Z " fill="#467057" transform="translate(131,317)"/>
<path d="M0 0 C4.29 0 8.58 0 13 0 C12.67 0.99 12.34 1.98 12 3 C11.01 3 10.02 3 9 3 C9 2.34 9 1.68 9 1 C8.34 1 7.68 1 7 1 C7 3.31 7 5.62 7 8 C6.67 8 6.34 8 6 8 C6 6.35 6 4.7 6 3 C3.53721199 5.46278801 3.00228745 7.70676982 2 11 C1.67 11 1.34 11 1 11 C0.67 7.37 0.34 3.74 0 0 Z " fill="#14341E" transform="translate(243,286)"/>
<path d="M0 0 C2.64 0 5.28 0 8 0 C8 0.66 8 1.32 8 2 C7.01 2.495 7.01 2.495 6 3 C5.67 9.27 5.34 15.54 5 22 C4.34 21.67 3.68 21.34 3 21 C3.020625 20.05125 3.04125 19.1025 3.0625 18.125 C3.22551826 15.09333717 3.22551826 15.09333717 2 13 C1.93003986 11.29297265 1.91559846 9.58331997 1.9375 7.875 C1.94652344 6.96492188 1.95554687 6.05484375 1.96484375 5.1171875 C1.97644531 4.41851562 1.98804688 3.71984375 2 3 C1.34 2.67 0.68 2.34 0 2 C0 1.34 0 0.68 0 0 Z " fill="#4B6955" transform="translate(300,285)"/>
<path d="M0 0 C1.65 1.32 3.3 2.64 5 4 C4.67 5.32 4.34 6.64 4 8 C0.7 7.67 -2.6 7.34 -6 7 C-5.8125 4.625 -5.8125 4.625 -5 2 C-2.4375 0.6875 -2.4375 0.6875 0 0 Z " fill="#33593A" transform="translate(166,300)"/>
<path d="M0 0 C2.05078125 0.03255208 4.1015625 0.06510417 6.15234375 0.09765625 C4.86269199 1.47328479 3.52545082 2.80532018 2.15234375 4.09765625 C1.49234375 4.09765625 0.83234375 4.09765625 0.15234375 4.09765625 C0.15234375 4.75765625 0.15234375 5.41765625 0.15234375 6.09765625 C1.14234375 6.09765625 2.13234375 6.09765625 3.15234375 6.09765625 C3.15234375 6.75765625 3.15234375 7.41765625 3.15234375 8.09765625 C3.81234375 8.42765625 4.47234375 8.75765625 5.15234375 9.09765625 C2.83984375 9.72265625 2.83984375 9.72265625 0.15234375 10.09765625 C-0.83765625 9.43765625 -1.82765625 8.77765625 -2.84765625 8.09765625 C-3.09765625 4.53515625 -3.09765625 4.53515625 -2.84765625 1.09765625 C-1.84765625 0.09765625 -1.84765625 0.09765625 0 0 Z " fill="#49674F" transform="translate(161.84765625,318.90234375)"/>
<path d="M0 0 C-0.33 1.65 -0.66 3.3 -1 5 C-1.99 4.67 -2.98 4.34 -4 4 C-4.66 4.66 -5.32 5.32 -6 6 C-8.31 5.34 -10.62 4.68 -13 4 C-13.99 4.99 -14.98 5.98 -16 7 C-15.34 5.02 -14.68 3.04 -14 1 C-12.22932584 0.83165067 -10.45845388 0.66538091 -8.6875 0.5 C-7.70136719 0.4071875 -6.71523437 0.314375 -5.69921875 0.21875 C-3 0 -3 0 0 0 Z " fill="#084D08" transform="translate(196,315)"/>
<path d="M0 0 C2.475 0.99 2.475 0.99 5 2 C4.01 2.33 3.02 2.66 2 3 C2 4.32 2 5.64 2 7 C3.97536745 6.65213292 3.97536745 6.65213292 6 6 C6.33 5.34 6.66 4.68 7 4 C7.38218767 5.65614657 7.71395102 7.32457024 8 9 C7 10 7 10 4.0625 10.1875 C1 10 1 10 -1 8 C-1.33333333 2.66666667 -1.33333333 2.66666667 0 0 Z " fill="#65806C" transform="translate(323,318)"/>
<path d="M0 0 C0.33 0 0.66 0 1 0 C1.07347656 1.15628906 1.07347656 1.15628906 1.1484375 2.3359375 C1.22320312 3.33882813 1.29796875 4.34171875 1.375 5.375 C1.44460937 6.37273437 1.51421875 7.37046875 1.5859375 8.3984375 C1.76363964 11.15508879 1.76363964 11.15508879 4 13 C3 14 3 14 0.71484375 14.09765625 C-0.65994141 14.08025391 -0.65994141 14.08025391 -2.0625 14.0625 C-2.98160156 14.05347656 -3.90070313 14.04445313 -4.84765625 14.03515625 C-5.55792969 14.02355469 -6.26820313 14.01195312 -7 14 C-5.66666667 11.33333333 -4.33333333 8.66666667 -3 6 C-2.67 6 -2.34 6 -2 6 C-2.020625 6.969375 -2.04125 7.93875 -2.0625 8.9375 C-2.35618499 11.87465895 -2.35618499 11.87465895 -1 13 C-0.67 8.71 -0.34 4.42 0 0 Z " fill="#2F5034" transform="translate(181,293)"/>
<path d="M0 0 C0 1.32 0 2.64 0 4 C0.66 4 1.32 4 2 4 C2.33 3.34 2.66 2.68 3 2 C3.33 3.32 3.66 4.64 4 6 C4.99 5.67 5.98 5.34 7 5 C7.33 5.66 7.66 6.32 8 7 C7.01 7 6.02 7 5 7 C5.33 7.99 5.66 8.98 6 10 C5.01 9.67 4.02 9.34 3 9 C2.01 9.33 1.02 9.66 0 10 C-1 8 -2 6 -3 4 C-3.66 3.67 -4.32 3.34 -5 3 C-2.25 0 -2.25 0 0 0 Z " fill="#E1C53E" transform="translate(250,230)"/>
<path d="M0 0 C0.66 0.33 1.32 0.66 2 1 C2 1.33 2 1.66 2 2 C2.969375 2.28875 3.93875 2.5775 4.9375 2.875 C8 4 8 4 9 6 C11.30965848 7.05352843 13.6429774 8.05719096 16 9 C14 10 14 10 10.75 9.0625 C6.64536211 7.89951926 2.93677883 7.03161059 -1 9 C-0.649375 8.2575 -0.29875 7.515 0.0625 6.75 C1.04509293 3.8677274 1.0326802 2.78823655 0 0 Z " fill="#E3C179" transform="translate(243,209)"/>
<path d="M0 0 C0.99 0 1.98 0 3 0 C3.33 1.65 3.66 3.3 4 5 C4.99 5.33 5.98 5.66 7 6 C7 7.65 7 9.3 7 11 C2.25 10.125 2.25 10.125 0 9 C0 6.03 0 3.06 0 0 Z " fill="#406A4A" transform="translate(247,319)"/>
<path d="M0 0 C0.99 0 1.98 0 3 0 C3 0.99 3 1.98 3 3 C3.66 3 4.32 3 5 3 C5.33 3.66 5.66 4.32 6 5 C7.32 5 8.64 5 10 5 C10 5.66 10 6.32 10 7 C10.66 7.33 11.32 7.66 12 8 C6.375 9.125 6.375 9.125 3 8 C2.01 8 1.02 8 0 8 C0 5.36 0 2.72 0 0 Z " fill="#466653" transform="translate(132,299)"/>
<path d="M0 0 C0.99 0.33 1.98 0.66 3 1 C3.08096803 2.45742463 3.13917774 3.91612807 3.1875 5.375 C3.22230469 6.18710937 3.25710938 6.99921875 3.29296875 7.8359375 C3.19628906 8.55007813 3.09960938 9.26421875 3 10 C0 12 0 12 -3.1875 11.625 C-4.5796875 11.315625 -4.5796875 11.315625 -6 11 C-5.67 10.01 -5.34 9.02 -5 8 C-2.9375 7.3125 -2.9375 7.3125 -1 7 C-0.67 4.69 -0.34 2.38 0 0 Z " fill="#436549" transform="translate(297,317)"/>
<path d="M0 0 C2.81085203 4.21627805 3.11045516 7.02951792 3 12 C0.03 11.505 0.03 11.505 -3 11 C-3 3 -3 3 -1.5 1.3125 C-0.7575 0.6628125 -0.7575 0.6628125 0 0 Z " fill="#204B2B" transform="translate(157,316)"/>
<path d="M0 0 C2.60527105 -0.10792837 5.20608311 -0.18724878 7.8125 -0.25 C8.55048828 -0.28351563 9.28847656 -0.31703125 10.04882812 -0.3515625 C15.51201923 -0.45044379 15.51201923 -0.45044379 18.03125 1.875 C19 4 19 4 18.6875 6.25 C18.3471875 7.11625 18.3471875 7.11625 18 8 C16.68 7.67 15.36 7.34 14 7 C14 6.34 14 5.68 14 5 C13.34 4.67 12.68 4.34 12 4 C12.66 3.01 13.32 2.02 14 1 C9.38 1.33 4.76 1.66 0 2 C0 1.34 0 0.68 0 0 Z " fill="#344E3C" transform="translate(242,285)"/>
<path d="M0 0 C0.66 0 1.32 0 2 0 C5.91275168 7.64765101 5.91275168 7.64765101 7 11 C6.67 11.99 6.34 12.98 6 14 C6 13.34 6 12.68 6 12 C5.01 11.67 4.02 11.34 3 11 C0.78143765 9.10769682 -0.73064619 7.6349054 -1.875 4.9375 C-2 3 -2 3 0 0 Z " fill="#22442D" transform="translate(159,285)"/>
<path d="M0 0 C2.98191427 1.04367 3.8747545 2.22328366 5.5 4.875 C4.51 4.875 3.52 4.875 2.5 4.875 C2.17 4.215 1.84 3.555 1.5 2.875 C-0.15 2.875 -1.8 2.875 -3.5 2.875 C-3.83 3.865 -4.16 4.855 -4.5 5.875 C-2.85 6.205 -1.2 6.535 0.5 6.875 C0.17 7.865 -0.16 8.855 -0.5 9.875 C-1.49 9.545 -2.48 9.215 -3.5 8.875 C-4.16 9.865 -4.82 10.855 -5.5 11.875 C-6.88461538 5.10576923 -6.88461538 5.10576923 -5.5 1.875 C-2.5 -0.125 -2.5 -0.125 0 0 Z " fill="#C2A05F" transform="translate(256.5,203.125)"/>
<path d="M0 0 C1.32 0 2.64 0 4 0 C4.33 0.66 4.66 1.32 5 2 C5.33 1.34 5.66 0.68 6 0 C6.66 0 7.32 0 8 0 C8 2.97 8 5.94 8 9 C7.01 9 6.02 9 5 9 C4.67 7.68 4.34 6.36 4 5 C3.34 5 2.68 5 2 5 C1.67 4.34 1.34 3.68 1 3 C0.34 3 -0.32 3 -1 3 C-0.67 2.01 -0.34 1.02 0 0 Z " fill="#3C5C41" transform="translate(172,319)"/>
<path d="M0 0 C1.98 0 3.96 0 6 0 C6 0.66 6 1.32 6 2 C14.25 2.33 22.5 2.66 31 3 C31 3.33 31 3.66 31 4 C19.78 4 8.56 4 -3 4 C-3 3.67 -3 3.34 -3 3 C-1.35 2.67 0.3 2.34 2 2 C1.34 1.34 0.68 0.68 0 0 Z " fill="#D8CD9C" transform="translate(302,273)"/>
<path d="M0 0 C2.31 0 4.62 0 7 0 C7 1.65 7 3.3 7 5 C5.35 5 3.7 5 2 5 C2 5.66 2 6.32 2 7 C3.32 7.33 4.64 7.66 6 8 C4.02 8 2.04 8 0 8 C-1.09658936 4.71023192 -0.79953138 3.28696233 0 0 Z " fill="#46774F" transform="translate(332,320)"/>
<path d="M0 0 C1.5625 1.75 1.5625 1.75 3 4 C2.6875 6.25 2.6875 6.25 2 8 C2.99 8.33 3.98 8.66 5 9 C0.15507803 10.51403812 -3.2591011 9.36602172 -8 8 C-8 7.34 -8 6.68 -8 6 C-6.865625 6.020625 -5.73125 6.04125 -4.5625 6.0625 C-1.18424326 6.41577477 -1.18424326 6.41577477 0 5 C0.04063832 3.33382885 0.042721 1.66611905 0 0 Z " fill="#496854" transform="translate(152,319)"/>
<path d="M0 0 C1.65 0.33 3.3 0.66 5 1 C1.67692308 6.78461538 1.67692308 6.78461538 -1.75 7.875 C-2.4925 7.91625 -3.235 7.9575 -4 8 C-4.33 7.01 -4.66 6.02 -5 5 C-4.34 4.01 -3.68 3.02 -3 2 C-2.01 2 -1.02 2 0 2 C0 1.34 0 0.68 0 0 Z " fill="#D6AC59" transform="translate(274,214)"/>
<path d="M0 0 C2 3 2 3 2 5 C2.66 5 3.32 5 4 5 C4.66 6.32 5.32 7.64 6 9 C4.35 9.33 2.7 9.66 1 10 C0.67 9.34 0.34 8.68 0 8 C-0.99 7.67 -1.98 7.34 -3 7 C-1.125 1.125 -1.125 1.125 0 0 Z " fill="#C7A152" transform="translate(253,186)"/>
<path d="M0 0 C0.99 0 1.98 0 3 0 C3.6875 2.3125 3.6875 2.3125 4 5 C2.875 6.8125 2.875 6.8125 1 8 C-1.6875 8.1875 -1.6875 8.1875 -4 8 C-4 6.68 -4 5.36 -4 4 C-2.68 3.67 -1.36 3.34 0 3 C0 2.01 0 1.02 0 0 Z " fill="#24412D" transform="translate(324,299)"/>
<path d="M0 0 C3.3 0 6.6 0 10 0 C10 0.66 10 1.32 10 2 C9.34 2 8.68 2 8 2 C8 4.31 8 6.62 8 9 C7.34 8.01 6.68 7.02 6 6 C5.01 6.495 5.01 6.495 4 7 C4 5.68 4 4.36 4 3 C2.68 2.67 1.36 2.34 0 2 C0 1.34 0 0.68 0 0 Z " fill="#4A6752" transform="translate(330,285)"/>
<path d="M0 0 C0.556875 0.226875 1.11375 0.45375 1.6875 0.6875 C1.6875 2.0075 1.6875 3.3275 1.6875 4.6875 C0.3675 4.3575 -0.9525 4.0275 -2.3125 3.6875 C-2.6425 6.3275 -2.9725 8.9675 -3.3125 11.6875 C-3.6425 11.6875 -3.9725 11.6875 -4.3125 11.6875 C-4.5078125 9.63671875 -4.703125 7.5859375 -4.8984375 5.53515625 C-5.03507812 4.92542969 -5.17171875 4.31570312 -5.3125 3.6875 C-5.9725 3.3575 -6.6325 3.0275 -7.3125 2.6875 C-2.88173077 -0.38942308 -2.88173077 -0.38942308 0 0 Z " fill="#BD882E" transform="translate(289.3125,184.3125)"/>
<path d="M0 0 C0.33 0 0.66 0 1 0 C1.33 2.31 1.66 4.62 2 7 C3.32 6.34 4.64 5.68 6 5 C6.33 5.99 6.66 6.98 7 8 C7.66 8.33 8.32 8.66 9 9 C8 10 8 10 5.93359375 10.09765625 C5.10988281 10.08605469 4.28617188 10.07445312 3.4375 10.0625 C2.61121094 10.05347656 1.78492188 10.04445313 0.93359375 10.03515625 C0.29550781 10.02355469 -0.34257812 10.01195312 -1 10 C-1 6.58900832 -0.50854594 3.36911686 0 0 Z " fill="#667D6C" transform="translate(244,297)"/>
<path d="M0 0 C0.33 0.99 0.66 1.98 1 3 C1.763125 3.12375 2.52625 3.2475 3.3125 3.375 C6 4 6 4 9 6 C8.34 7.65 7.68 9.3 7 11 C6.01 11 5.02 11 4 11 C4 9 4 9 5 8 C4.34 8 3.68 8 3 8 C2.34 7.34 1.68 6.68 1 6 C0.34 5.67 -0.32 5.34 -1 5 C-0.67 3.35 -0.34 1.7 0 0 Z " fill="#DBB86D" transform="translate(251,228)"/>
<path d="M0 0 C6.15234375 0.5859375 6.15234375 0.5859375 8 1 C8.33 1.66 8.66 2.32 9 3 C3.28094617 3.82536345 -2.2267149 4.12753701 -8 4.0625 C-9.16208984 4.05573242 -9.16208984 4.05573242 -10.34765625 4.04882812 C-12.23180524 4.03719758 -14.11591365 4.01926906 -16 4 C-16 3.67 -16 3.34 -16 3 C-10.72 3 -5.44 3 0 3 C0 2.01 0 1.02 0 0 Z " fill="#B6A479" transform="translate(265,311)"/>
<path d="M0 0 C7.75 -0.125 7.75 -0.125 10 1 C9.67 1.99 9.34 2.98 9 4 C1.25 4.125 1.25 4.125 -1 3 C-0.67 2.01 -0.34 1.02 0 0 Z " fill="#C4AF5E" transform="translate(183,311)"/>
<path d="M0 0 C0.99 0 1.98 0 3 0 C3.29296875 6.0546875 3.29296875 6.0546875 3 8 C2.01 8.66 1.02 9.32 0 10 C-0.99 9.67 -1.98 9.34 -3 9 C-3 7.35 -3 5.7 -3 4 C-2.34 3.67 -1.68 3.34 -1 3 C-0.67 2.01 -0.34 1.02 0 0 Z " fill="#49705B" transform="translate(243,319)"/>
<path d="M0 0 C2 2 2 2 2.125 4.625 C2.08375 5.40875 2.0425 6.1925 2 7 C1.34 6.67 0.68 6.34 0 6 C0 5.34 0 4.68 0 4 C-1.32 4.33 -2.64 4.66 -4 5 C-4 4.34 -4 3.68 -4 3 C-5.65 3.33 -7.3 3.66 -9 4 C-6.56225426 0.2214941 -6.56225426 0.2214941 -3.9375 -0.8125 C-2 -1 -2 -1 0 0 Z " fill="#C39B50" transform="translate(224,223)"/>
<path d="M0 0 C0.66 0.33 1.32 0.66 2 1 C2 1.66 2 2.32 2 3 C2.99 3 3.98 3 5 3 C5 2.34 5 1.68 5 1 C5.66 1 6.32 1 7 1 C7.33 2.65 7.66 4.3 8 6 C7.01 6.33 6.02 6.66 5 7 C4.01 6.34 3.02 5.68 2 5 C0.7315625 4.7525 0.7315625 4.7525 -0.5625 4.5 C-3 4 -3 4 -5 2 C-2.625 0.9375 -2.625 0.9375 0 0 Z " fill="#0C2A11" transform="translate(144,316)"/>
<path d="M0 0 C2.97 0.495 2.97 0.495 6 1 C5.67 2.32 5.34 3.64 5 5 C4.01 5 3.02 5 2 5 C2.33 5.99 2.66 6.98 3 8 C1.0625 7.6875 1.0625 7.6875 -1 7 C-2 4 -2 4 -1.0625 1.8125 C-0.5365625 0.9153125 -0.5365625 0.9153125 0 0 Z " fill="#DBB25A" transform="translate(232,212)"/>
<path d="M0 0 C0 0.99 0 1.98 0 3 C-0.66 3.66 -1.32 4.32 -2 5 C-1.6814823 7.10820797 -1.6814823 7.10820797 -1 9 C-2.32 8.67 -3.64 8.34 -5 8 C-5 7.34 -5 6.68 -5 6 C-5.99 6 -6.98 6 -8 6 C-8 5.34 -8 4.68 -8 4 C-2.58823529 0 -2.58823529 0 0 0 Z " fill="#204B2D" transform="translate(170,319)"/>
<path d="M0 0 C0.66 0.33 1.32 0.66 2 1 C2 4.63 2 8.26 2 12 C1.01 12 0.02 12 -1 12 C-2.37520651 8.17998192 -1.74051523 4.92473073 -1 1 C-0.67 0.67 -0.34 0.34 0 0 Z " fill="#54715B" transform="translate(209,316)"/>
<path d="M0 0 C0.66 0.33 1.32 0.66 2 1 C2 3.64 2 6.28 2 9 C0.02 9.33 -1.96 9.66 -4 10 C-3.25 5.25 -3.25 5.25 -1 3 C-0.67 3.66 -0.34 4.32 0 5 C0 3.35 0 1.7 0 0 Z " fill="#234D38" transform="translate(239,287)"/>
<path d="M0 0 C2.64 0 5.28 0 8 0 C8 0.66 8 1.32 8 2 C6.68 2.33 5.36 2.66 4 3 C3.67 6.96 3.34 10.92 3 15 C2.67 15 2.34 15 2 15 C2 10.71 2 6.42 2 2 C1.34 2 0.68 2 0 2 C0 1.34 0 0.68 0 0 Z " fill="#708578" transform="translate(205,285)"/>
<path d="M0 0 C-1.125 1.9375 -1.125 1.9375 -3 4 C-6.1875 4.75 -6.1875 4.75 -9 5 C-8.67 3.02 -8.34 1.04 -8 -1 C-4.59745511 -2.2151946 -3.06748874 -1.86240388 0 0 Z " fill="#BD8833" transform="translate(239,255)"/>
<path d="M0 0 C1.0625 1.8125 1.0625 1.8125 2 4 C1.67 4.99 1.34 5.98 1 7 C0.01 5.68 -0.98 4.36 -2 3 C-1.34 2.01 -0.68 1.02 0 0 Z M-9 3 C-6.69 3.33 -4.38 3.66 -2 4 C-1.67 4.99 -1.34 5.98 -1 7 C-1.66 7 -2.32 7 -3 7 C-3.33 7.99 -3.66 8.98 -4 10 C-4.45375 9.21625 -4.9075 8.4325 -5.375 7.625 C-6.88428742 4.96301969 -6.88428742 4.96301969 -9 3 Z " fill="#C19442" transform="translate(245,243)"/>
<path d="M0 0 C-0.33 0.99 -0.66 1.98 -1 3 C-2.64666203 2.8864371 -4.29236082 2.75882619 -5.9375 2.625 C-6.85402344 2.55539062 -7.77054688 2.48578125 -8.71484375 2.4140625 C-9.84599609 2.20910156 -9.84599609 2.20910156 -11 2 C-11.33 1.34 -11.66 0.68 -12 0 C-7.91556885 -1.53166168 -4.20544343 -0.63081652 0 0 Z " fill="#BFAE7B" transform="translate(161,312)"/>
<path d="M0 0 C0 0.66 0 1.32 0 2 C-3.21451269 3.60725635 -6.43612536 3.05748185 -10 3 C-10 2.01 -10 1.02 -10 0 C-6.7169902 -1.6415049 -3.57454967 -0.51888624 0 0 Z " fill="#CFBA85" transform="translate(176,312)"/>
<path d="M0 0 C1.69141656 0.08963062 3.37959602 0.24577676 5.0625 0.4375 C6.44115234 0.59025391 6.44115234 0.59025391 7.84765625 0.74609375 C8.55792969 0.82988281 9.26820313 0.91367187 10 1 C10 1.33 10 1.66 10 2 C8.02 2 6.04 2 4 2 C3.34 3.65 2.68 5.3 2 7 C1.01 7 0.02 7 -1 7 C-1.04254356 5.00045254 -1.04080783 2.99958364 -1 1 C-0.67 0.67 -0.34 0.34 0 0 Z " fill="#405D47" transform="translate(170,284)"/>
<path d="M0 0 C0 0.99 0 1.98 0 3 C-3.63 3.33 -7.26 3.66 -11 4 C-11.33 3.34 -11.66 2.68 -12 2 C-7.82262526 0.40861915 -4.46839215 -0.21278058 0 0 Z " fill="#B8AC75" transform="translate(346,311)"/>
<path d="M0 0 C1.65 0.33 3.3 0.66 5 1 C5.33 2.32 5.66 3.64 6 5 C3.36 5 0.72 5 -2 5 C-1.34 3.35 -0.68 1.7 0 0 Z " fill="#2A4E32" transform="translate(150,302)"/>
<path d="M0 0 C3 1 3 1 4.1875 3.0625 C4.455625 3.701875 4.72375 4.34125 5 5 C4 6 4 6 0.9375 6.0625 C-0.031875 6.041875 -1.00125 6.02125 -2 6 C-2.33 4.68 -2.66 3.36 -3 2 C-2.01 2 -1.02 2 0 2 C0 1.34 0 0.68 0 0 Z " fill="#2B4930" transform="translate(365,301)"/>
<path d="M0 0 C0.66 0 1.32 0 2 0 C4.29013653 3.4352048 4.17842973 4.985331 4 9 C3.01 9 2.02 9 1 9 C1 8.34 1 7.68 1 7 C0.34 7 -0.32 7 -1 7 C-0.67 4.69 -0.34 2.38 0 0 Z " fill="#183F26" transform="translate(300,297)"/>
<path d="M0 0 C0.66 0.33 1.32 0.66 2 1 C2 3.33333333 2 5.66666667 2 8 C0.68 8.33 -0.64 8.66 -2 9 C-2 8.01 -2 7.02 -2 6 C-3.32 5.67 -4.64 5.34 -6 5 C-5.195625 4.360625 -4.39125 3.72125 -3.5625 3.0625 C-1.7249496 1.59396498 -1.7249496 1.59396498 0 0 Z " fill="#D8B96B" transform="translate(272,208)"/>
<path d="M0 0 C0 0.66 0 1.32 0 2 C-1.98 2 -3.96 2 -6 2 C-6.33 5.3 -6.66 8.6 -7 12 C-7.66 12 -8.32 12 -9 12 C-9.33 9.36 -9.66 6.72 -10 4 C-9.01 4 -8.02 4 -7 4 C-7 3.01 -7 2.02 -7 1 C-4.50935112 0.31292445 -2.62113708 0 0 0 Z " fill="#16331A" transform="translate(358,315)"/>
<path d="M0 0 C1.98 0.66 3.96 1.32 6 2 C6 3.98 6 5.96 6 8 C4.02 7.34 2.04 6.68 0 6 C0 4.02 0 2.04 0 0 Z " fill="#B89D54" transform="translate(244,234)"/>
<path d="M0 0 C0.33 0.66 0.66 1.32 1 2 C3.01669827 3.13350534 3.01669827 3.13350534 5 4 C5 4.66 5 5.32 5 6 C1.7 6 -1.6 6 -5 6 C-4.01 5.01 -3.02 4.02 -2 3 C-1.34 3 -0.68 3 0 3 C0 2.01 0 1.02 0 0 Z " fill="#577456" transform="translate(288,301)"/>
<path d="M0 0 C2 3 2 3 1.625 5.6875 C1.41875 6.450625 1.2125 7.21375 1 8 C-0.9375 7.6875 -0.9375 7.6875 -3 7 C-3.33 6.01 -3.66 5.02 -4 4 C-2.68 2.68 -1.36 1.36 0 0 Z " fill="#13391F" transform="translate(281,298)"/>
<path d="M0 0 C-0.66 2.64 -1.32 5.28 -2 8 C-2.99 8 -3.98 8 -5 8 C-5 6.35 -5 4.7 -5 3 C-5.66 3 -6.32 3 -7 3 C-7 2.34 -7 1.68 -7 1 C-4.53721199 -0.231394 -2.7204945 -0.07159196 0 0 Z " fill="#58725F" transform="translate(317,320)"/>
<path d="M0 0 C2 1.8125 2 1.8125 4 4 C4 4.99 4 5.98 4 7 C1.36 7 -1.28 7 -4 7 C-3.67 6.01 -3.34 5.02 -3 4 C-2.34 4 -1.68 4 -1 4 C-0.67 2.68 -0.34 1.36 0 0 Z " fill="#5E7467" transform="translate(351,300)"/>
<path d="M0 0 C0.66 0.33 1.32 0.66 2 1 C1.67 3.31 1.34 5.62 1 8 C-0.65 8.33 -2.3 8.66 -4 9 C-3.42618522 5.67187429 -2.40619252 4.30157545 0 2 C0 1.34 0 0.68 0 0 Z " fill="#21492C" transform="translate(146,297)"/>
<path d="M0 0 C0.33 0.66 0.66 1.32 1 2 C1.66 2 2.32 2 3 2 C3 2.66 3 3.32 3 4 C2.34 4 1.68 4 1 4 C1 4.66 1 5.32 1 6 C0.34 6 -0.32 6 -1 6 C-1 6.66 -1 7.32 -1 8 C-1.66 8 -2.32 8 -3 8 C-4 5 -4 5 -3.1875 2.875 C-2 1 -2 1 0 0 Z " fill="#CEAB64" transform="translate(253,238)"/>
<path d="M0 0 C1.32 1.32 2.64 2.64 4 4 C3.67 4.66 3.34 5.32 3 6 C2.01 5.67 1.02 5.34 0 5 C0.33 6.65 0.66 8.3 1 10 C-0.9375 9.6875 -0.9375 9.6875 -3 9 C-3.33 8.01 -3.66 7.02 -4 6 C-3.01 6 -2.02 6 -1 6 C-0.67 4.02 -0.34 2.04 0 0 Z " fill="#BA9955" transform="translate(262,208)"/>
<path d="M0 0 C1.3242287 0.36784131 2.65613912 0.71202981 4 1 C3.67 1.99 3.34 2.98 3 4 C2.34 4 1.68 4 1 4 C1 3.34 1 2.68 1 2 C-3.47254497 0.50915168 -7.52745503 0.50915168 -12 2 C-12 1.01 -12 0.02 -12 -1 C-3.70588235 -2.38235294 -3.70588235 -2.38235294 0 0 Z " fill="#B38D4A" transform="translate(280,183)"/>
<path d="M0 0 C0.33 0 0.66 0 1 0 C1.08636719 0.68707031 1.17273438 1.37414062 1.26171875 2.08203125 C1.98756539 7.8682702 1.98756539 7.8682702 5.625 12.125 C6.800625 12.558125 6.800625 12.558125 8 13 C6.25 13.6875 6.25 13.6875 4 14 C1.875 12.875 1.875 12.875 0 11 C-0.390625 8.30078125 -0.390625 8.30078125 -0.25 5.3125 C-0.21390625 4.31863281 -0.1778125 3.32476562 -0.140625 2.30078125 C-0.09421875 1.54152344 -0.0478125 0.78226563 0 0 Z " fill="#B89A4D" transform="translate(215,239)"/>
<path d="M0 0 C0.66 0 1.32 0 2 0 C2 1.98 2 3.96 2 6 C2.66 6.33 3.32 6.66 4 7 C2.35 7.33 0.7 7.66 -1 8 C-1.93065133 5.39417629 -2.14917407 4.35801776 -1.0625 1.75 C-0.711875 1.1725 -0.36125 0.595 0 0 Z " fill="#1D3D2D" transform="translate(346,299)"/>
<path d="M0 0 C0.99 0.33 1.98 0.66 3 1 C2.01 3.31 1.02 5.62 0 8 C-0.99 7.34 -1.98 6.68 -3 6 C-2.625 3.5625 -2.625 3.5625 -2 1 C-1.34 0.67 -0.68 0.34 0 0 Z " fill="#315238" transform="translate(358,284)"/>
<path d="M0 0 C0.99 0 1.98 0 3 0 C3.33 0.99 3.66 1.98 4 3 C-1.41538462 6.07692308 -1.41538462 6.07692308 -4.375 5.6875 C-4.91125 5.460625 -5.4475 5.23375 -6 5 C-5.67 4.01 -5.34 3.02 -5 2 C-4.01 2.33 -3.02 2.66 -2 3 C-1.34 2.01 -0.68 1.02 0 0 Z " fill="#DFC57A" transform="translate(266,222)"/>
<path d="M0 0 C1.98 0.495 1.98 0.495 4 1 C4.33 2.98 4.66 4.96 5 7 C3 7 1 7 -1 7 C-0.67 4.69 -0.34 2.38 0 0 Z " fill="#E2C358" transform="translate(259,219)"/>
<path d="M0 0 C2.97 0.495 2.97 0.495 6 1 C6 2.32 6 3.64 6 5 C4.68 4.67 3.36 4.34 2 4 C1.67 4.66 1.34 5.32 1 6 C1 5.34 1 4.68 1 4 C0.01 3.67 -0.98 3.34 -2 3 C-1.34 2.01 -0.68 1.02 0 0 Z " fill="#1D3112" transform="translate(312,316)"/>
<path d="M0 0 C1.65 1.32 3.3 2.64 5 4 C4.67 4.33 4.34 4.66 4 5 C1.30917128 4.82364548 -1.32851446 4.38164079 -4 4 C-4 3.34 -4 2.68 -4 2 C-2.68 1.34 -1.36 0.68 0 0 Z " fill="#395C44" transform="translate(260,302)"/>
<path d="M0 0 C0.33 0 0.66 0 1 0 C0.95875 0.94875 0.9175 1.8975 0.875 2.875 C0.65026182 6.10244856 0.65026182 6.10244856 3 8 C0.69 8 -1.62 8 -4 8 C-2.66666667 5.33333333 -1.33333333 2.66666667 0 0 Z " fill="#23552F" transform="translate(178,299)"/>
<path d="M0 0 C2 0 2 0 3.6875 1.25 C4.120625 1.8275 4.55375 2.405 5 3 C4.6875 5.1875 4.6875 5.1875 4 7 C1.525 6.01 1.525 6.01 -1 5 C-0.67 3.35 -0.34 1.7 0 0 Z " fill="#1C432B" transform="translate(133,288)"/>
<path d="M0 0 C0.93423645 3.01031744 1.04449911 3.86650268 0 7 C-0.66 7 -1.32 7 -2 7 C-2.66 6.01 -3.32 5.02 -4 4 C-4.99 3.34 -5.98 2.68 -7 2 C-2.25 0 -2.25 0 0 0 Z " fill="#26432F" transform="translate(146,285)"/>
<path d="M0 0 C0.268125 0.639375 0.53625 1.27875 0.8125 1.9375 C1.88667752 4.33131686 1.88667752 4.33131686 5 5 C4.01 6.98 3.02 8.96 2 11 C-0.67927341 6.98108988 -0.15601248 4.75838077 0 0 Z " fill="#557060" transform="translate(192,292)"/>
<path d="M0 0 C1.485 0.99 1.485 0.99 3 2 C3.1875 4.625 3.1875 4.625 3 7 C2.34 7 1.68 7 1 7 C0.67 7.66 0.34 8.32 0 9 C-0.87890625 2.84765625 -0.87890625 2.84765625 -1 1 C-0.67 0.67 -0.34 0.34 0 0 Z " fill="#CCA555" transform="translate(247,241)"/>
<path d="M0 0 C5.94 0.99 5.94 0.99 12 2 C11.01 2.99 10.02 3.98 9 5 C5.828368 4.6828368 2.92969949 3.22070812 0 2 C0 1.34 0 0.68 0 0 Z " fill="#E1BE62" transform="translate(245,220)"/>
<path d="M0 0 C0.33 0.99 0.66 1.98 1 3 C1.66 3.33 2.32 3.66 3 4 C2.34 4 1.68 4 1 4 C0.67 5.65 0.34 7.3 0 9 C-0.66 9 -1.32 9 -2 9 C-2.125 5.625 -2.125 5.625 -2 2 C-1.34 1.34 -0.68 0.68 0 0 Z " fill="#CEAB5D" transform="translate(242,205)"/>
<path d="M0 0 C0.33 0.99 0.66 1.98 1 3 C-2.32534757 4.10844919 -4.62182575 3.84454356 -8 3 C-5.53387212 -0.1151089 -3.89156016 -0.31553191 0 0 Z " fill="#D9BE7D" transform="translate(238,209)"/>
<path d="M0 0 C0.66 0 1.32 0 2 0 C2 2.97 2 5.94 2 9 C0.68 9 -0.64 9 -2 9 C-2 8.34 -2 7.68 -2 7 C-1.01 7 -0.02 7 1 7 C0.34 6.67 -0.32 6.34 -1 6 C-1.042721 4.33388095 -1.04063832 2.66617115 -1 1 C-0.67 0.67 -0.34 0.34 0 0 Z " fill="#33533C" transform="translate(237,319)"/>
<path d="M0 0 C2 3 2 3 3 6 C0 7 0 7 -2.1875 6.0625 C-2.785625 5.711875 -3.38375 5.36125 -4 5 C-2.68 3.35 -1.36 1.7 0 0 Z " fill="#10391D" transform="translate(157,316)"/>
<path d="M0 0 C0.99 1.32 1.98 2.64 3 4 C2.67 4.66 2.34 5.32 2 6 C2.99 6.66 3.98 7.32 5 8 C2.69 8 0.38 8 -2 8 C-1.47731534 5.23723823 -0.89130413 2.6739124 0 0 Z " fill="#507463" transform="translate(270,290)"/>
<path d="M0 0 C0.66 0 1.32 0 2 0 C1.33035714 7.09821429 1.33035714 7.09821429 -2 10 C-1.85950482 8.52031676 -1.71245174 7.04125484 -1.5625 5.5625 C-1.48128906 4.73878906 -1.40007812 3.91507812 -1.31640625 3.06640625 C-1 1 -1 1 0 0 Z " fill="#1E492F" transform="translate(247,289)"/>
<path d="M0 0 C3.96 0 7.92 0 12 0 C11.01 1.485 11.01 1.485 10 3 C9.34 3 8.68 3 8 3 C8 2.34 8 1.68 8 1 C7.01 1 6.02 1 5 1 C5 1.66 5 2.32 5 3 C3.68 3 2.36 3 1 3 C0.67 2.01 0.34 1.02 0 0 Z " fill="#173721" transform="translate(224,286)"/>
<path d="M0 0 C-0.125 1.8125 -0.125 1.8125 -1 4 C-3.9375 5.8125 -3.9375 5.8125 -7 7 C-7.66 6.67 -8.32 6.34 -9 6 C-8.07213211 4.99105628 -7.13231567 3.99309093 -6.1875 3 C-5.66542969 2.443125 -5.14335937 1.88625 -4.60546875 1.3125 C-3 0 -3 0 0 0 Z " fill="#CCB16A" transform="translate(232,212)"/>
<path d="M0 0 C0 1.32 0 2.64 0 4 C-1.8125 4.625 -1.8125 4.625 -4 5 C-4.99 4.34 -5.98 3.68 -7 3 C-5.40442685 -0.19114631 -3.35905282 0 0 0 Z " fill="#597460" transform="translate(190,324)"/>
<path d="M0 0 C0.33 0 0.66 0 1 0 C1 2.31 1 4.62 1 7 C0.34 7 -0.32 7 -1 7 C-1 7.66 -1 8.32 -1 9 C-2.65 9 -4.3 9 -6 9 C-5.67 8.01 -5.34 7.02 -5 6 C-2.9375 5.3125 -2.9375 5.3125 -1 5 C-0.67 3.35 -0.34 1.7 0 0 Z " fill="#879F8B" transform="translate(297,319)"/>
<path d="M0 0 C0.99 0.66 1.98 1.32 3 2 C3 2.66 3 3.32 3 4 C2.34 4 1.68 4 1 4 C1 4.99 1 5.98 1 7 C0.34 7 -0.32 7 -1 7 C-1.33 5.02 -1.66 3.04 -2 1 C-1.34 0.67 -0.68 0.34 0 0 Z " fill="#385342" transform="translate(364,318)"/>
<path d="M0 0 C0.99 0 1.98 0 3 0 C2.4140625 6.15234375 2.4140625 6.15234375 2 8 C1.01 8.495 1.01 8.495 0 9 C0 6.03 0 3.06 0 0 Z " fill="#597D66" transform="translate(247,319)"/>
<path d="M0 0 C6.0546875 -0.1953125 6.0546875 -0.1953125 8 0 C8.66 0.66 9.32 1.32 10 2 C8 4 8 4 6 5 C5.67 4.34 5.34 3.68 5 3 C2.47266765 2.34444881 2.47266765 2.34444881 0 2 C0 1.34 0 0.68 0 0 Z " fill="#000B00" transform="translate(170,316)"/>
<path d="M0 0 C0.99 0 1.98 0 3 0 C3.33 1.32 3.66 2.64 4 4 C2.35 4.66 0.7 5.32 -1 6 C-1.042721 4.33388095 -1.04063832 2.66617115 -1 1 C-0.67 0.67 -0.34 0.34 0 0 Z " fill="#1C422A" transform="translate(227,294)"/>
<path d="M0 0 C0.99 0.33 1.98 0.66 3 1 C2.67 1.99 2.34 2.98 2 4 C1.34 4 0.68 4 0 4 C0 4.66 0 5.32 0 6 C-1.32 5.67 -2.64 5.34 -4 5 C-3.67 4.01 -3.34 3.02 -3 2 C-2.01 2 -1.02 2 0 2 C0 1.34 0 0.68 0 0 Z " fill="#183B26" transform="translate(276,291)"/>
<path d="M0 0 C2.64 0 5.28 0 8 0 C7.34 1.65 6.68 3.3 6 5 C5.34 4.34 4.68 3.68 4 3 C1.93125966 2.3574765 1.93125966 2.3574765 0 2 C0 1.34 0 0.68 0 0 Z " fill="#3B5B47" transform="translate(285,285)"/>
<path d="M0 0 C0.99 0.33 1.98 0.66 3 1 C2.67 2.32 2.34 3.64 2 5 C1.34 4.67 0.68 4.34 0 4 C0 4.66 0 5.32 0 6 C-0.66 6 -1.32 6 -2 6 C-2 4.35 -2 2.7 -2 1 C-1.34 0.67 -0.68 0.34 0 0 Z " fill="#2D523B" transform="translate(274,284)"/>
<path d="M0 0 C0.53625 0.37125 1.0725 0.7425 1.625 1.125 C-0.94713134 2.74449011 -2.05169159 3.16908751 -5.125 2.75 C-5.8675 2.54375 -6.61 2.3375 -7.375 2.125 C-7.705 2.785 -8.035 3.445 -8.375 4.125 C-8.375 3.135 -8.375 2.145 -8.375 1.125 C-2.95961538 -1.09038462 -2.95961538 -1.09038462 0 0 Z " fill="#0C3A00" transform="translate(338.375,315.875)"/>
<path d="M0 0 C1.32 0 2.64 0 4 0 C4 0.66 4 1.32 4 2 C4.78375 1.79375 5.5675 1.5875 6.375 1.375 C7.674375 1.189375 7.674375 1.189375 9 1 C9.66 1.66 10.32 2.32 11 3 C7.37 3 3.74 3 0 3 C0 2.01 0 1.02 0 0 Z " fill="#BC9E6C" transform="translate(207,312)"/>
<path d="M0 0 C1 2 1 2 1 6 C-1.64 6 -4.28 6 -7 6 C-6.34 5.01 -5.68 4.02 -5 3 C-3.68 3 -2.36 3 -1 3 C-0.67 2.01 -0.34 1.02 0 0 Z " fill="#547864" transform="translate(344,301)"/>
<path d="M0 0 C0.61875 0.350625 1.2375 0.70125 1.875 1.0625 C2.57625 1.371875 3.2775 1.68125 4 2 C4.66 1.67 5.32 1.34 6 1 C6 2.65 6 4.3 6 6 C5.01 6 4.02 6 3 6 C3 5.34 3 4.68 3 4 C2.01 4 1.02 4 0 4 C0 2.68 0 1.36 0 0 Z " fill="#132F1C" transform="translate(193,293)"/>
<path d="M0 0 C0.66 0.99 1.32 1.98 2 3 C1.67 3.66 1.34 4.32 1 5 C0.34 5 -0.32 5 -1 5 C-1.33 5.66 -1.66 6.32 -2 7 C-2.66 5.35 -3.32 3.7 -4 2 C-2.68 1.34 -1.36 0.68 0 0 Z " fill="#D6BA4D" transform="translate(243,217)"/>
<path d="M0 0 C1.65 0.33 3.3 0.66 5 1 C1.375 6.875 1.375 6.875 -2 8 C-2.33 7.34 -2.66 6.68 -3 6 C-2.01 6 -1.02 6 0 6 C1.01111093 2.95086772 1.01111093 2.95086772 0 0 Z " fill="#D3B26D" transform="translate(274,214)"/>
<path d="M0 0 C0.66 0.33 1.32 0.66 2 1 C2 2.65 2 4.3 2 6 C0.68 6 -0.64 6 -2 6 C-2 4.35 -2 2.7 -2 1 C-1.34 0.67 -0.68 0.34 0 0 Z " fill="#BA8833" transform="translate(288,198)"/>
<path d="M0 0 C1.98 0.66 3.96 1.32 6 2 C5.67 3.65 5.34 5.3 5 7 C3.68 6.34 2.36 5.68 1 5 C1.33 4.34 1.66 3.68 2 3 C1.34 2.67 0.68 2.34 0 2 C0 1.34 0 0.68 0 0 Z " fill="#E1B84C" transform="translate(247,198)"/>
<path d="M0 0 C0.66 0.99 1.32 1.98 2 3 C0.84826645 5.46800047 -0.04783565 7.04783565 -2 9 C-2.33 6.36 -2.66 3.72 -3 1 C-2.01 0.67 -1.02 0.34 0 0 Z " fill="#1E4323" transform="translate(268,318)"/>
<path d="M0 0 C1.65 0 3.3 0 5 0 C5.33 0.66 5.66 1.32 6 2 C4.8553125 2.1546875 4.8553125 2.1546875 3.6875 2.3125 C0.82940576 3.04364039 -0.15742885 3.76951913 -2 6 C-1.34 4.02 -0.68 2.04 0 0 Z " fill="#000000" transform="translate(182,316)"/>
<path d="M0 0 C0.66 0.33 1.32 0.66 2 1 C1.71125 1.556875 1.4225 2.11375 1.125 2.6875 C-0.0413253 5.08494645 -1.0339881 7.51596939 -2 10 C-2.66 10 -3.32 10 -4 10 C-3.52449439 8.51965236 -3.04448784 7.04074979 -2.5625 5.5625 C-2.29566406 4.73878906 -2.02882812 3.91507812 -1.75390625 3.06640625 C-1 1 -1 1 0 0 Z " fill="#446950" transform="translate(158,284)"/>
<path d="M0 0 C1.27351308 2.54702616 0.80191925 3.4282945 0.0625 6.125 C-0.13214844 6.84945313 -0.32679688 7.57390625 -0.52734375 8.3203125 C-0.68332031 8.87460937 -0.83929688 9.42890625 -1 10 C-1.33 10 -1.66 10 -2 10 C-2.66 7.03 -3.32 4.06 -4 1 C-2.68 0.67 -1.36 0.34 0 0 Z " fill="#11350D" transform="translate(246,314)"/>
<path d="M0 0 C5.75 -0.125 5.75 -0.125 8 1 C8 1.66 8 2.32 8 3 C5.03 2.67 2.06 2.34 -1 2 C-0.67 1.34 -0.34 0.68 0 0 Z " fill="#C6AF88" transform="translate(354,311)"/>
<path d="M0 0 C2.64 0 5.28 0 8 0 C8 0.33 8 0.66 8 1 C6.02 1 4.04 1 2 1 C2 1.66 2 2.32 2 3 C3.32 3.33 4.64 3.66 6 4 C3.69 3.67 1.38 3.34 -1 3 C-0.67 2.01 -0.34 1.02 0 0 Z " fill="#E5D9B7" transform="translate(183,311)"/>
<path d="M0 0 C1.2065625 0.0309375 1.2065625 0.0309375 2.4375 0.0625 C2.4375 0.7225 2.4375 1.3825 2.4375 2.0625 C1.1175 2.0625 -0.2025 2.0625 -1.5625 2.0625 C-1.8925 3.3825 -2.2225 4.7025 -2.5625 6.0625 C-3.2225 5.7325 -3.8825 5.4025 -4.5625 5.0625 C-3.43829114 0.08386076 -3.43829114 0.08386076 0 0 Z " fill="#143923" transform="translate(251.5625,296.9375)"/>
<path d="M0 0 C0.99 0.33 1.98 0.66 3 1 C3 2.32 3 3.64 3 5 C2.34 5 1.68 5 1 5 C0.67 5.99 0.34 6.98 0 8 C-0.33 8 -0.66 8 -1 8 C-1 6.35 -1 4.7 -1 3 C-0.34 3 0.32 3 1 3 C0.67 2.01 0.34 1.02 0 0 Z " fill="#C1A061" transform="translate(243,247)"/>
<path d="M0 0 C1 3 1 3 0.0625 5.1875 C-0.4634375 6.0846875 -0.4634375 6.0846875 -1 7 C-2.32 6.34 -3.64 5.68 -5 5 C-3.35 3.35 -1.7 1.7 0 0 Z " fill="#C8A96A" transform="translate(250,189)"/>
<path d="M0 0 C1.67542976 0.28604898 3.34385343 0.61781233 5 1 C4.34 2.32 3.68 3.64 3 5 C2.67 4.01 2.34 3.02 2 2 C1.34 2 0.68 2 0 2 C-0.66 3.32 -1.32 4.64 -2 6 C-1.125 1.125 -1.125 1.125 0 0 Z " fill="#144423" transform="translate(232,320)"/>
<path d="M0 0 C0.66 1.32 1.32 2.64 2 4 C1.360625 4.12375 0.72125 4.2475 0.0625 4.375 C-0.9584375 4.684375 -0.9584375 4.684375 -2 5 C-2.33 5.66 -2.66 6.32 -3 7 C-3.66 6.67 -4.32 6.34 -5 6 C-2.25 1.125 -2.25 1.125 0 0 Z " fill="#12311B" transform="translate(145,297)"/>
<path d="M0 0 C1.32 0.33 2.64 0.66 4 1 C3.34 2.32 2.68 3.64 2 5 C0.68 5 -0.64 5 -2 5 C-1.34 3.35 -0.68 1.7 0 0 Z " fill="#175024" transform="translate(163,297)"/>
<path d="M0 0 C1.9375 0.8125 1.9375 0.8125 4 2 C4.33 2.99 4.66 3.98 5 5 C2.625 5.1875 2.625 5.1875 0 5 C-0.66 4.01 -1.32 3.02 -2 2 C-1.34 2 -0.68 2 0 2 C0 1.34 0 0.68 0 0 Z " fill="#2A5439" transform="translate(321,294)"/>
<path d="M0 0 C1.32 0 2.64 0 4 0 C4 2.31 4 4.62 4 7 C3.34 6.01 2.68 5.02 2 4 C1.01 4.495 1.01 4.495 0 5 C0 3.35 0 1.7 0 0 Z " fill="#345A42" transform="translate(334,287)"/>
<path d="M0 0 C0 3.38023517 -0.87455622 5.83468937 -2 9 C-2.66 9 -3.32 9 -4 9 C-4.33 8.01 -4.66 7.02 -5 6 C-3.59554165 3.7363436 -1.8032087 1.9791315 0 0 Z " fill="#C3A065" transform="translate(213,228)"/>
<path d="M0 0 C1.98 0.66 3.96 1.32 6 2 C6 2.66 6 3.32 6 4 C3.36 4 0.72 4 -2 4 C-1.34 3.67 -0.68 3.34 0 3 C0 2.01 0 1.02 0 0 Z " fill="#657E6B" transform="translate(270,324)"/>
<path d="M0 0 C0.99 0 1.98 0 3 0 C4.6875 2 4.6875 2 6 4 C5.01 4.33 4.02 4.66 3 5 C2.01 4.34 1.02 3.68 0 3 C0 2.01 0 1.02 0 0 Z " fill="#53735D" transform="translate(215,324)"/>
<path d="M0 0 C1.32 0 2.64 0 4 0 C4 1.32 4 2.64 4 4 C3.01 4.33 2.02 4.66 1 5 C1 4.34 1 3.68 1 3 C0.34 3 -0.32 3 -1 3 C-0.67 2.01 -0.34 1.02 0 0 Z " fill="#203E22" transform="translate(181,323)"/>
<path d="M0 0 C2.64 0.66 5.28 1.32 8 2 C8 2.33 8 2.66 8 3 C5.03 3 2.06 3 -1 3 C-0.67 2.01 -0.34 1.02 0 0 Z " fill="#AE8B4A" transform="translate(352,312)"/>
<path d="M0 0 C1.98 0.495 1.98 0.495 4 1 C4 1.99 4 2.98 4 4 C2.35 4 0.7 4 -1 4 C-0.67 2.68 -0.34 1.36 0 0 Z " fill="#B3A381" transform="translate(132,311)"/>
<path d="M0 0 C0.99 0.33 1.98 0.66 3 1 C2.67 2.32 2.34 3.64 2 5 C1.01 5 0.02 5 -1 5 C-1.33 4.01 -1.66 3.02 -2 2 C-1.34 1.34 -0.68 0.68 0 0 Z " fill="#133D24" transform="translate(257,299)"/>
<path d="M0 0 C1.98 0.66 3.96 1.32 6 2 C6 2.99 6 3.98 6 5 C4.125 4.75 4.125 4.75 2 4 C0.75 1.9375 0.75 1.9375 0 0 Z " fill="#C0A16B" transform="translate(211,256)"/>
<path d="M0 0 C0.66 0.33 1.32 0.66 2 1 C2 3.31 2 5.62 2 8 C1.34 8 0.68 8 0 8 C-0.66 6.02 -1.32 4.04 -2 2 C-1.34 1.34 -0.68 0.68 0 0 Z " fill="#C09B5E" transform="translate(209,248)"/>
<path d="M0 0 C-1.485 1.485 -1.485 1.485 -3 3 C-2.34 3.33 -1.68 3.66 -1 4 C-2.32 4.33 -3.64 4.66 -5 5 C-5.33 3.35 -5.66 1.7 -6 0 C-3 -1 -3 -1 0 0 Z " fill="#EBD76D" transform="translate(240,217)"/>
<path d="M0 0 C2 2 2 2 2.1953125 4.1640625 C2.17210937 4.97617188 2.14890625 5.78828125 2.125 6.625 C2.10695313 7.44226563 2.08890625 8.25953125 2.0703125 9.1015625 C2.03550781 10.04128906 2.03550781 10.04128906 2 11 C1.67 11 1.34 11 1 11 C0.8046875 8.94921875 0.609375 6.8984375 0.4140625 4.84765625 C0.27742188 4.23792969 0.14078125 3.62820312 0 3 C-0.66 2.67 -1.32 2.34 -2 2 C-1.34 1.34 -0.68 0.68 0 0 Z " fill="#AC8036" transform="translate(284,185)"/>
<path d="" fill="#000000" transform="translate(0,0)"/>
<path d="" fill="#FFFF00" transform="translate(0,0)"/>
</svg>
